<?xml version="1.0" encoding="UTF-8"?>
<svg xmlns="http://www.w3.org/2000/svg" viewBox="0 0 500 500">
  <defs>
    <style>
      .cls-1 {
        fill: #fbc704;
      }

      .cls-2 {
        fill: #facebb;
      }

      .cls-3 {
        fill: #ffe1a6;
      }

      .cls-4 {
        stroke: #a36d66;
      }

      .cls-4, .cls-5, .cls-6, .cls-7, .cls-8, .cls-9 {
        fill: none;
        stroke-linecap: round;
        stroke-linejoin: round;
        stroke-width: .5px;
      }

      .cls-10 {
        fill: #db7298;
      }

      .cls-10, .cls-11, .cls-12 {
        mix-blend-mode: multiply;
      }

      .cls-13 {
        fill: #fff;
      }

      .cls-14 {
        fill: #2d2427;
      }

      .cls-5 {
        stroke: #d8908b;
      }

      .cls-15 {
        fill: #f5a8a4;
        opacity: .86;
      }

      .cls-6 {
        stroke-dasharray: 2;
      }

      .cls-6, .cls-7, .cls-9 {
        stroke: #fff;
      }

      .cls-16 {
        fill: #fff5d7;
      }

      .cls-17 {
        fill: #1c1c1c;
      }

      .cls-11 {
        fill: #ffe2d9;
      }

      .cls-18 {
        isolation: isolate;
      }

      .cls-19 {
        fill: #a36d66;
      }

      .cls-8 {
        stroke: #f5a8a4;
      }

      .cls-20 {
        fill: #3a3134;
      }

      .cls-9 {
        stroke-dasharray: 1.97 1.97;
      }

      .cls-12 {
        fill: #ffefe9;
      }

      .cls-21 {
        fill: #f9bbcc;
      }
    </style>
  </defs>
  <g class="cls-18">
    <g id="OBJECTS">
      <g>
        <path class="cls-16" d="M124.37,326.25c4.99,1.78,10.02,3.52,14.27,6.24,4.36,2.79,7.53,7.12,9.09,12.06,8.44,26.78,2.3,58.9,42.61,59.85,2.13.05,4.27-.16,6.31-.75,21.63-6.27,19.22-43.26,43.9-47.05,14.56-2.49,26.33,10.73,37.72,20.13,31.04,27.27,73.09,14.11,70.4-29.42-.1-1.65-.03-3.31.26-4.94,4.58-25.72,27.11-30.28,46.22-40.41,7.46-3.96,12.34-11.64,12.22-20.09-.25-18.55-21.07-36.17-36.05-46-.61-.4-1.25-.75-1.9-1.11-15.48-8.47-19.42-31.8-13.42-47.89,1.32-3.53,3.55-6.64,6.41-9.09,17.59-15.08,39.25-35.08,27.81-59.08-1.48-3.11-3.73-5.81-6.46-7.9-24.55-18.83-57.26-2-84.96-3.85-1.45-.1-2.9-.31-4.31-.69-18.49-4.99-31.3-23.14-49.54-29.58-21.87-7.72-48.74,5.92-55.67,27.98-.23.73-.39,1.48-.54,2.22-9.37,46.96-49.36-6.14-83.49-1.23-6.44.93-12.13,4.75-15.61,10.25-18.83,29.71-1.75,38.34,19.9,59.27,3.28,3.17,5.6,7.25,6.43,11.73,3.19,17.27-13.97,33.73-6.75,51.1.76,1.83,1.82,3.52,3.05,5.06,21.38,26.71,9.74,36.67,1.22,48.55-8.8,12.26-3.34,29.55,10.87,34.62Z"/>
        <g>
          <path class="cls-2" d="M385.38,191.32s12.56-11.22,15.08-10.82-8.43,10.46-8.43,10.46c0,0,12.4-7.54,14.18-6.81,1.78.73-11.92,9-11.92,9,0,0,13.62-5.67,15.16-4.46,1.54,1.22-6.19,5.54-12.04,7.38-5.85,1.83-12.04-4.75-12.04-4.75Z"/>
          <path class="cls-12" d="M385.38,191.32s12.56-11.22,15.08-10.82-8.43,10.46-8.43,10.46c0,0,12.4-7.54,14.18-6.81,1.78.73-11.92,9-11.92,9,0,0,13.62-5.67,15.16-4.46,1.54,1.22-6.19,5.54-12.04,7.38-5.85,1.83-12.04-4.75-12.04-4.75Z"/>
          <path class="cls-12" d="M385.38,191.32s12.56-11.22,15.08-10.82-8.43,10.46-8.43,10.46c0,0,12.4-7.54,14.18-6.81,1.78.73-11.92,9-11.92,9,0,0,13.62-5.67,15.16-4.46,1.54,1.22-6.19,5.54-12.04,7.38-5.85,1.83-12.04-4.75-12.04-4.75Z"/>
          <path class="cls-1" d="M295.82,213.77s10.69-1.57,21.71,6.21c11.02,7.78,36.11,34.7,36.11,34.7l24.32-60.07,19.13,4.63s-15.89,88.48-31.13,90.77c-15.24,2.29-60.1-25.61-60.1-25.61"/>
          <polygon class="cls-11" points="353.65 254.68 350.04 263.27 350.75 251.61 353.65 254.68"/>
          <path class="cls-11" d="M312.11,268.14c-.69-10.98-4.13-23.41-4.13-23.41-.05,6.87-.5,17.76-.63,20.59,1.08.66,2.71,1.63,4.76,2.83Z"/>
          <path class="cls-2" d="M381.21,195.4s-9.37-7.76-10.42-10.92,13.62,6,13.62,6c0,0,7.05-.53,7.38,4.92,0,0,21.56-5.97,22.53-2.73.97,3.24-18.91,6.17-18.91,6.17l-14.19-3.43Z"/>
          <path class="cls-2" d="M106.98,191.63s-12.56-11.22-15.08-10.82c-2.51.41,8.43,10.46,8.43,10.46,0,0-12.4-7.54-14.18-6.81-1.78.73,11.92,9,11.92,9,0,0-13.62-5.67-15.16-4.46-1.54,1.22,6.19,5.54,12.04,7.38,5.85,1.83,12.04-4.75,12.04-4.75Z"/>
          <path class="cls-12" d="M106.98,191.63s-12.56-11.22-15.08-10.82c-2.51.41,8.43,10.46,8.43,10.46,0,0-12.4-7.54-14.18-6.81-1.78.73,11.92,9,11.92,9,0,0-13.62-5.67-15.16-4.46-1.54,1.22,6.19,5.54,12.04,7.38,5.85,1.83,12.04-4.75,12.04-4.75Z"/>
          <path class="cls-12" d="M106.98,191.63s-12.56-11.22-15.08-10.82c-2.51.41,8.43,10.46,8.43,10.46,0,0-12.4-7.54-14.18-6.81-1.78.73,11.92,9,11.92,9,0,0-13.62-5.67-15.16-4.46-1.54,1.22,6.19,5.54,12.04,7.38,5.85,1.83,12.04-4.75,12.04-4.75Z"/>
          <path class="cls-1" d="M185.36,216.77c12.51-9.05,45.55,7.68,58.01,5.47v-19.55s.56.1,1.56.27c1.01-.18,1.56-.27,1.56-.27v19.55c12.46,2.21,47.12-16.26,61.92-5.47,9.35,6.82-1.31,45.06-5.31,81.31,3.03,40.22,1.86,62.19,1.86,62.19h-116.15s-4.91-21-.04-62.19c-3.69-35.88-11.96-75.13-3.4-81.31Z"/>
          <path class="cls-21" d="M241.72,233.53c0,.99.62,1.78,1.39,1.78s1.39-.8,1.39-1.78-.62-1.78-1.39-1.78-1.39.8-1.39,1.78Z"/>
          <path class="cls-13" d="M241.36,258.54c0,.99.62,1.78,1.39,1.78s1.39-.8,1.39-1.78-.62-1.78-1.39-1.78-1.39.8-1.39,1.78Z"/>
          <path class="cls-13" d="M241.01,283.54c0,.99.62,1.78,1.39,1.78s1.39-.8,1.39-1.78-.62-1.78-1.39-1.78-1.39.8-1.39,1.78Z"/>
          <path class="cls-13" d="M240.66,308.54c0,.99.62,1.78,1.39,1.78s1.39-.8,1.39-1.78-.62-1.78-1.39-1.78-1.39.8-1.39,1.78Z"/>
          <path class="cls-13" d="M240.31,333.54c0,.99.62,1.78,1.39,1.78s1.39-.8,1.39-1.78-.62-1.78-1.39-1.78-1.39.8-1.39,1.78Z"/>
          <g>
            <path class="cls-2" d="M246.74,201.52h0c6.68,0,12.11,5.43,12.11,12.11v26.6c0,3-2.44,5.44-5.44,5.44h-13.34c-3,0-5.44-2.44-5.44-5.44v-26.6c0-6.68,5.43-12.11,12.11-12.11Z" transform="translate(493.49 447.19) rotate(-180)"/>
            <path class="cls-12" d="M258.85,214.76c-7.4,4.86-15.83,7.41-24.22,6.89v-20.13h24.22v13.24Z"/>
            <path class="cls-12" d="M258.85,214.76c-7.4,4.86-15.83,7.41-24.22,6.89v-20.13h24.22v13.24Z"/>
            <path class="cls-12" d="M258.85,214.76c-7.4,4.86-15.83,7.41-24.22,6.89v-20.13h24.22v13.24Z"/>
            <g>
              <path class="cls-2" d="M209.38,159.64c-6.81,23.31,3.41,48.38,23.75,54.32,20.34,5.94,43.08-9.5,49.89-32.81s-8.35-46.64-28.69-52.58c-20.34-5.94-38.15,7.76-44.96,31.07Z"/>
              <path class="cls-12" d="M254.34,128.58c-2.51-.73-4.97-1.16-7.39-1.32,5.85,6.27,11.1,14.94,15.93,23.97,11.46,21.41,6.03,48.36-12.65,58.36-6.13,3.28-12.92,4.31-19.68,3.49.84.33,1.7.64,2.58.89,20.34,5.94,43.08-9.5,49.89-32.81s-8.35-46.64-28.69-52.58Z"/>
              <path class="cls-2" d="M278.99,180.92c-3.03,4.29-4.67,9.32-1.03,11.88,3.64,2.56,11.18,1.7,14.2-2.6,3.03-4.29,2.53-9.85-1.11-12.42-3.64-2.56-9.04-1.16-12.06,3.14Z"/>
              <path class="cls-8" d="M288.48,189.49c1.72-2.44,1.44-5.6-.63-7.06-2.07-1.46-5.14-.66-6.86,1.78-.43.61-.81,1.25-1.11,1.88"/>
              <path class="cls-8" d="M279.24,188.39c.42.46,1.02.74,1.69.74,1.27,0,2.3-1.03,2.3-2.3s-1.03-2.3-2.3-2.3"/>
              <circle class="cls-19" cx="243.81" cy="157.96" r="1.18"/>
              <path class="cls-12" d="M278.99,180.92c-3.03,4.29-4.67,9.32-1.03,11.88,3.64,2.56,11.18,1.7,14.2-2.6,3.03-4.29,2.53-9.85-1.11-12.42-3.64-2.56-9.04-1.16-12.06,3.14Z"/>
              <path class="cls-19" d="M220.06,156.78c0,.65.53,1.18,1.18,1.18s1.18-.53,1.18-1.18-.53-1.18-1.18-1.18-1.18.53-1.18,1.18Z"/>
              <path class="cls-17" d="M249.21,151.39c-.1,0-.18-.06-.21-.16-.03-.12-.84-3.03-4.44-3.17-.12,0-.21-.1-.21-.22,0-.12.09-.2.22-.21,3.93.14,4.84,3.45,4.84,3.49.03.12-.04.23-.15.26-.02,0-.04,0-.05,0Z"/>
              <path class="cls-17" d="M220.09,152.2c-.3,0-.62-.02-.95-.06-.12-.02-.2-.12-.18-.24.02-.12.12-.21.24-.18,3.09.41,4.85-1.5,4.87-1.52.08-.09.21-.1.3-.02.09.08.1.22.02.3-.07.08-1.57,1.73-4.3,1.73Z"/>
              <path class="cls-4" d="M231.33,155.61s-2.22,6.65-3.88,11.23c0,0-3.19-.83-4.64-.28-1.46.55,1.11,3.81,4.26,5.27,0,0,2.5,1.57,5.29-.6"/>
              <path class="cls-15" d="M251.17,172.35c-.36,2.66,2.43,5.23,6.23,5.73,3.79.51,7.16-1.24,7.51-3.9.36-2.66-2.43-5.23-6.23-5.73-3.79-.51-7.16,1.24-7.51,3.9Z"/>
              <ellipse class="cls-15" cx="205.37" cy="166.18" rx="6.93" ry="4.86"/>
            </g>
          </g>
          <path class="cls-7" d="M252.15,249.29l15.92,6.54s6.05-13.9,1.42-30.5"/>
          <path class="cls-7" d="M235.05,246.05l-14.63,4.93s-2.97-10.81,3.3-25.77"/>
          <g>
            <polyline class="cls-7" points="243.64 361.5 240.67 384.45 255.49 387.39"/>
            <path class="cls-7" d="M213.25,366.56s-3.08,12.47-18.33,12.61"/>
            <path class="cls-7" d="M277.18,366.56s3.08,12.47,18.33,12.61"/>
          </g>
          <path class="cls-20" d="M284,177.03s-10.81-7.5-16.25-21.42c0,0-12.8,4.61-12.8-17.31,0,0-36.34,15.6-45.17,0-8.83-15.6,10.81-40.38,28.25-16.77,0,0,1.02-8.53,6.54-8.39,5.52.15-2.85,10.74-2.85,10.74,0,0,39.87-3.53,38.17,18.39,0,0,5.81-5.44,7.28-4.56s-6.62,6.03-6.62,6.03c0,0,12.65.74,15.74,7.43,3.09,6.69-12.29,25.86-12.29,25.86Z"/>
          <path class="cls-20" d="M223.88,170.21s3.53,3.09,5.68,2.48c2.15-.61,7.34-3.92,14.95.99,7.61,4.91,19.49,28.12,38.13,2.31l1.35,1.04s-10.8,13.41-8.12,18.99c0,0-9.29,25.55-43.53,21.8s-36.1-32.49-25.07-44.55c0,0,6.93-4.22,16.6-3.06Z"/>
          <path class="cls-5" d="M227.37,180.81s-1.97-4.65-3.51-3.78c-1.54.87.89,5.97.89,5.97,0,0-2.84-.73-2.84,1.54s4.86,3.24,6.08-.97"/>
          <path class="cls-7" d="M207.59,296.48s39.83-.97,78.75,5.84c0,0-35.33-9.08-73.1-8.43"/>
          <path class="cls-1" d="M196.54,214.07s-10.69-1.57-21.71,6.21c-11.02,7.78-36.11,34.7-36.11,34.7l-24.32-60.07-19.13,4.63s15.89,88.48,31.13,90.77c15.24,2.29,60.1-25.61,60.1-25.61"/>
          <polygon class="cls-11" points="138.72 254.99 142.32 263.57 141.61 251.92 138.72 254.99"/>
          <path class="cls-11" d="M184.35,244.73s-3.51,12.69-4.15,23.75c2.05-1.2,3.7-2.19,4.79-2.85-.1-2.22-.59-13.75-.64-20.9Z"/>
          <path class="cls-2" d="M111.15,195.7s9.37-7.76,10.42-10.92-13.62,6-13.62,6c0,0-7.05-.53-7.38,4.92,0,0-21.56-5.97-22.53-2.73-.97,3.24,18.91,6.17,18.91,6.17l14.19-3.43Z"/>
          <g>
            <path class="cls-7" d="M194.91,381.91s.36.03,1,.03"/>
            <path class="cls-9" d="M197.88,381.84c4.55-.43,13.2-2.59,17.62-12.51"/>
            <path class="cls-7" d="M215.89,368.42c.12-.3.24-.62.36-.94"/>
          </g>
          <path class="cls-6" d="M273.88,367.48s3.39,14.59,21.63,15.4"/>
          <polyline class="cls-6" points="245.83 361.97 243.16 382.88 255.15 384.91"/>
          <line class="cls-7" x1="251.33" y1="392.52" x2="240.31" y2="390.75"/>
          <polygon class="cls-10" points="190.39 360.27 303.09 360.27 303.09 365.21 190.38 362.74 190.39 360.27"/>
          <path class="cls-14" d="M284,177.03l-1.35-1.04c-7.28,10.08-13.53,12.69-18.9,11.82-2.97,13.58-15.98,23.81-31.58,23.81-14.6,0-26.93-8.96-30.88-21.24.29,12.08,8.87,25.01,31.07,27.44,34.24,3.75,43.53-21.8,43.53-21.8-2.68-5.58,8.12-18.99,8.12-18.99Z"/>
          <path class="cls-14" d="M296.29,151.17c-3.09-6.69-15.74-7.43-15.74-7.43,0,0,8.09-5.15,6.62-6.03s-7.28,4.56-7.28,4.56c.48-6.24-2.41-10.42-6.78-13.2,6.61,7.71-.9,22.55-8.63,22.09-9.4-.56-5.62-19.71-5.62-19.71,0,0-20.61,12.16-37.16,9.24-9.37-1.65-12.75-8.19-13.92-13.55-.52,3.75.03,7.68,2,11.15,8.83,15.6,45.17,0,45.17,0,0,21.92,12.8,17.31,12.8,17.31,5.44,13.93,16.25,21.42,16.25,21.42,0,0,15.38-19.16,12.29-25.86Z"/>
          <path class="cls-11" d="M243.37,360.27h61.59s1.17-21.97-1.86-62.19c2.19-19.84,6.37-40.27,8.18-55.82-.1-8.05-.54-10.53-1.54-1.69-3.53,30.99-17.87,61.74-17.87,61.74,0,0,2.92,43.77-33.02,50.9-27.71,5.5-58.6.98-71.29-1.38.6,5.61,1.26,8.44,1.26,8.44h54.56Z"/>
        </g>
        <g>
          <path class="cls-3" d="M342.99,147.07c1.57-.87,2.6-2.35,3.1-4.44.45-1.87.13-3.61-.96-5.2-1.09-1.6-2.68-2.65-4.77-3.15-2.18-.52-4.1-.34-5.76.55-1.66.89-2.73,2.32-3.2,4.28-.48,2-.19,3.78.86,5.32,1.06,1.54,2.7,2.58,4.92,3.11,2.31.55,4.24.4,5.81-.47Z"/>
          <path class="cls-3" d="M358.25,125.35c1.36-.48,2.64-1.3,3.84-2.46,1.2-1.16,2.05-2.79,2.55-4.88.56-2.35.4-4.61-.48-6.78-.89-2.17-2.4-4.05-4.55-5.65-2.15-1.6-4.77-2.77-7.86-3.51-.28-.07-.58-.12-.88-.18-4.33.17-8.72.64-13.13,1.24l-1.27,8.82c2.88-.51,5.85-.39,8.9.34,3.44.82,4.99,1.93,4.66,3.33-.12.48-.45.84-1.02,1.07-.56.23-1.55.5-2.96.81-2.47.51-4.49,1.2-6.06,2.07-1.57.87-2.61,2.39-3.13,4.57-.31,1.31-.35,3.09-.11,5.36l9.14,2.19.3-1.24c.28-1.18.95-2,2.01-2.49,1.06-.48,2.67-.92,4.84-1.33,2.11-.37,3.85-.79,5.21-1.27Z"/>
        </g>
        <path class="cls-20" d="M338.52,139.63c-1.06-1.54-1.35-3.32-.86-5.32.47-1.96,1.54-3.38,3.2-4.28,1.66-.89,3.58-1.07,5.76-.55,2.09.5,3.68,1.55,4.77,3.15,1.09,1.6,1.41,3.33.96,5.2-.5,2.09-1.54,3.57-3.1,4.44-1.57.87-3.5,1.02-5.81.47-2.22-.53-3.86-1.57-4.92-3.11ZM343.12,119.32c.52-2.18,1.56-3.7,3.13-4.57,1.57-.87,3.58-1.56,6.06-2.07,1.41-.31,2.39-.58,2.96-.81.56-.23.9-.59,1.02-1.07.33-1.39-1.22-2.5-4.66-3.33-3.05-.73-6.01-.84-8.9-.34l1.47-10.15c2.26-.42,4.63-.6,7.11-.54,2.47.06,4.71.33,6.71.81,3.09.74,5.71,1.91,7.86,3.51,2.15,1.6,3.67,3.48,4.55,5.65.88,2.17,1.05,4.43.48,6.78-.5,2.09-1.35,3.72-2.55,4.88-1.2,1.16-2.48,1.99-3.84,2.46-1.36.48-3.09.9-5.21,1.27-2.17.4-3.78.84-4.84,1.33-1.06.48-1.73,1.31-2.01,2.49l-.3,1.24-9.14-2.19c-.24-2.27-.2-4.05.11-5.36Z"/>
        <path class="cls-3" d="M148.7,141.07c.6,2.16.42,3.99-.53,5.51-.95,1.52-2.38,3.1-4.3,4.74-1.08.95-1.82,1.66-2.19,2.14-.38.48-.5.95-.37,1.43.38,1.38,2.28,1.6,5.69.65,3.02-.84,5.67-2.18,7.95-4.02l3.63,9.59c-1.78,1.47-3.76,2.77-5.95,3.92-2.19,1.14-4.28,1.99-6.27,2.54-3.06.85-5.92,1.1-8.58.74-2.65-.36-4.89-1.27-6.72-2.74-1.82-1.47-3.06-3.37-3.71-5.7-.57-2.07-.62-3.91-.13-5.5.49-1.6,1.21-2.94,2.16-4.02.96-1.08,2.27-2.29,3.94-3.64,1.7-1.4,2.9-2.57,3.59-3.51.69-.94.88-1.99.55-3.15l-.34-1.23,9.06-2.51c1.31,1.87,2.14,3.45,2.5,4.74ZM142.88,121.07c1.67.84,2.78,2.25,3.33,4.23.54,1.94.3,3.7-.73,5.29-1.02,1.58-2.61,2.68-4.77,3.27-2.07.57-3.97.43-5.7-.44-1.73-.87-2.85-2.23-3.36-4.09-.57-2.07-.39-3.87.56-5.38.95-1.52,2.57-2.59,4.86-3.23,2.2-.61,4.14-.5,5.81.34Z"/>
        <path class="cls-20" d="M153.92,135.07c.6,2.16.42,3.99-.53,5.51-.95,1.52-2.38,3.1-4.3,4.74-1.08.95-1.82,1.66-2.19,2.14-.38.48-.5.95-.37,1.43.38,1.38,2.28,1.6,5.69.65,3.02-.84,5.67-2.18,7.95-4.02l3.63,9.59c-1.78,1.47-3.76,2.77-5.95,3.92-2.19,1.14-4.28,1.99-6.27,2.54-3.06.85-5.92,1.1-8.58.74-2.65-.36-4.89-1.27-6.72-2.74-1.82-1.47-3.06-3.37-3.71-5.7-.57-2.07-.62-3.91-.13-5.5.49-1.6,1.21-2.94,2.16-4.02.96-1.08,2.27-2.29,3.94-3.64,1.7-1.4,2.9-2.57,3.59-3.51.69-.94.88-1.99.55-3.15l-.34-1.23,9.06-2.51c1.31,1.87,2.14,3.45,2.5,4.74ZM148.1,115.08c1.67.84,2.78,2.25,3.33,4.23.54,1.94.3,3.7-.73,5.29-1.02,1.58-2.61,2.68-4.77,3.27-2.07.57-3.97.43-5.7-.44-1.73-.87-2.85-2.23-3.36-4.09-.57-2.07-.39-3.87.56-5.38.95-1.52,2.57-2.59,4.86-3.23,2.2-.61,4.14-.5,5.81.34Z"/>
        <circle class="cls-16" cx="88.92" cy="90.11" r="10.9"/>
        <circle class="cls-16" cx="78.26" cy="111.82" r="2.53"/>
        <circle class="cls-16" cx="172" cy="110.08" r="8.2"/>
        <path class="cls-16" d="M194.66,75.66c0,1.96-1.59,3.55-3.55,3.55s-3.55-1.59-3.55-3.55,1.59-3.55,3.55-3.55,3.55,1.59,3.55,3.55Z"/>
        <circle class="cls-16" cx="302.56" cy="89.7" r="6.73"/>
        <circle class="cls-16" cx="404.02" cy="87.14" r="11.48"/>
        <path class="cls-16" d="M380.83,90.59c0,1.9-1.54,3.45-3.45,3.45s-3.45-1.54-3.45-3.45,1.54-3.45,3.45-3.45,3.45,1.54,3.45,3.45Z"/>
        <path class="cls-16" d="M408.25,155.77c0,1.86-1.51,3.37-3.37,3.37s-3.37-1.51-3.37-3.37,1.51-3.37,3.37-3.37,3.37,1.51,3.37,3.37Z"/>
        <circle class="cls-16" cx="108.91" cy="368.01" r="16.9" transform="translate(-219.66 169.68) rotate(-42.4)"/>
        <path class="cls-16" d="M103.45,332.44c0,2.38-1.93,4.3-4.3,4.3s-4.3-1.93-4.3-4.3,1.93-4.3,4.3-4.3,4.3,1.93,4.3,4.3Z"/>
        <circle class="cls-16" cx="80.36" cy="403.58" r="2.35"/>
        <circle class="cls-16" cx="149.96" cy="401.57" r="2.01"/>
        <circle class="cls-16" cx="90.89" cy="257.59" r="5.98"/>
        <circle class="cls-16" cx="385.56" cy="384.73" r="14.83" transform="translate(-76.88 672.51) rotate(-76.83)"/>
        <path class="cls-16" d="M354.81,405.74c0,2.31-1.87,4.17-4.17,4.17s-4.17-1.87-4.17-4.17,1.87-4.17,4.17-4.17,4.17,1.87,4.17,4.17Z"/>
        <path class="cls-16" d="M373.38,335.45c0,2.04-1.65,3.69-3.69,3.69s-3.69-1.65-3.69-3.69,1.65-3.69,3.69-3.69,3.69,1.65,3.69,3.69Z"/>
        <path class="cls-16" d="M416.69,237.05c0,1.94-1.58,3.52-3.52,3.52s-3.52-1.58-3.52-3.52,1.58-3.52,3.52-3.52,3.52,1.58,3.52,3.52Z"/>
        <path class="cls-16" d="M403.59,353.4c0,1.27-1.03,2.3-2.3,2.3s-2.3-1.03-2.3-2.3,1.03-2.3,2.3-2.3,2.3,1.03,2.3,2.3Z"/>
        <path class="cls-16" d="M408.25,405.9c0,1.29-1.04,2.33-2.33,2.33s-2.33-1.04-2.33-2.33,1.04-2.33,2.33-2.33,2.33,1.04,2.33,2.33Z"/>
      </g>
    </g>
  </g>
</svg>