<?xml version="1.0" encoding="UTF-8"?>
<svg xmlns="http://www.w3.org/2000/svg" viewBox="0 0 332.8 332.8">
  <defs>
    <style>
      .cls-1, .cls-2 {
        fill: #170d05;
      }

      .cls-3 {
        fill: #96432a;
      }

      .cls-4 {
        fill: #804e26;
      }

      .cls-5 {
        fill: #3b1411;
      }

      .cls-2 {
        mix-blend-mode: multiply;
        opacity: .37;
      }

      .cls-6 {
        fill: #1d253d;
      }

      .cls-7 {
        fill: #fea30a;
      }

      .cls-8 {
        fill: #80410e;
      }

      .cls-9 {
        fill: #f46136;
      }

      .cls-10 {
        fill: #fff;
      }

      .cls-11 {
        fill: #006cb0;
      }

      .cls-12, .cls-13 {
        fill: #465a94;
      }

      .cls-12, .cls-14, .cls-15 {
        opacity: .32;
      }

      .cls-16 {
        fill: #3e2410;
      }

      .cls-17 {
        fill: #7a2923;
      }

      .cls-18 {
        fill: #bf6d3e;
      }

      .cls-19 {
        fill: none;
      }

      .cls-20 {
        fill: #a6f3ff;
      }

      .cls-21 {
        fill: #47bed1;
      }

      .cls-22 {
        fill: #a86114;
      }

      .cls-23 {
        isolation: isolate;
      }

      .cls-24 {
        fill: #febc10;
      }

      .cls-25 {
        fill: #dd4f05;
      }

      .cls-26 {
        fill: #ffab91;
      }

      .cls-27 {
        fill: #001e4a;
      }

      .cls-28, .cls-29 {
        fill: #afcab7;
      }

      .cls-30 {
        fill: #fbf8f5;
      }

      .cls-31, .cls-14 {
        fill: #ff941e;
      }

      .cls-32 {
        fill: #feb12f;
      }

      .cls-33 {
        fill: #211f1c;
      }

      .cls-34 {
        fill: #ffc9b9;
      }

      .cls-35 {
        fill: #ff8a65;
      }

      .cls-29 {
        opacity: .27;
      }

      .cls-36 {
        fill: #0081c9;
      }

      .cls-37 {
        fill: #ffab90;
      }

      .cls-38 {
        opacity: .22;
      }

      .cls-39 {
        fill: #6c301e;
      }
    </style>
  </defs>
  <g class="cls-23">
    <g id="BACKGROUND">
      <g>
        <rect class="cls-19" width="332.8" height="332.8"/>
        <polygon class="cls-29" points="206.95 180.61 209.21 182.87 206.95 185.13 208.29 186.47 210.55 184.21 212.81 186.47 214.14 185.13 211.89 182.87 214.14 180.61 212.81 179.27 210.55 181.53 208.29 179.27 206.95 180.61"/>
        <g class="cls-38">
          <path class="cls-13" d="M58.44,9.73c-.59,0-1.07-.48-1.07-1.07s.48-1.07,1.07-1.07,1.07.48,1.07,1.07-.48,1.07-1.07,1.07Z"/>
          <path class="cls-13" d="M47.94,9.73c-.59,0-1.07-.48-1.07-1.07s.48-1.07,1.07-1.07,1.07.48,1.07,1.07-.48,1.07-1.07,1.07Z"/>
          <circle class="cls-13" cx="47.94" cy="22.32" r="1.07"/>
          <path class="cls-13" d="M37.43,9.73c-.59,0-1.07-.48-1.07-1.07s.48-1.07,1.07-1.07,1.07.48,1.07,1.07-.48,1.07-1.07,1.07Z"/>
          <circle class="cls-13" cx="37.43" cy="22.32" r="1.07"/>
          <path class="cls-13" d="M37.43,37.05c-.59,0-1.07-.48-1.07-1.07s.48-1.07,1.07-1.07,1.07.48,1.07,1.07-.48,1.07-1.07,1.07Z"/>
          <path class="cls-13" d="M26.93,9.73c-.59,0-1.07-.48-1.07-1.07s.48-1.07,1.07-1.07,1.07.48,1.07,1.07-.48,1.07-1.07,1.07Z"/>
          <path class="cls-13" d="M26.93,23.39c-.59,0-1.07-.48-1.07-1.07s.48-1.07,1.07-1.07,1.07.48,1.07,1.07-.48,1.07-1.07,1.07Z"/>
          <path class="cls-13" d="M26.93,37.05c-.59,0-1.07-.48-1.07-1.07s.48-1.07,1.07-1.07,1.07.48,1.07,1.07-.48,1.07-1.07,1.07Z"/>
          <path class="cls-13" d="M26.93,50.71c-.59,0-1.07-.48-1.07-1.07s.48-1.07,1.07-1.07,1.07.48,1.07,1.07-.48,1.07-1.07,1.07Z"/>
          <path class="cls-13" d="M16.43,9.73c-.59,0-1.07-.48-1.07-1.07s.48-1.07,1.07-1.07,1.07.48,1.07,1.07-.48,1.07-1.07,1.07Z"/>
          <circle class="cls-13" cx="16.43" cy="22.32" r="1.07"/>
          <path class="cls-13" d="M16.43,37.05c-.59,0-1.07-.48-1.07-1.07s.48-1.07,1.07-1.07,1.07.48,1.07,1.07-.48,1.07-1.07,1.07Z"/>
          <circle class="cls-13" cx="16.43" cy="49.64" r="1.07"/>
          <circle class="cls-13" cx="16.43" cy="63.3" r="1.07"/>
          <path class="cls-13" d="M5.93,9.73c-.59,0-1.07-.48-1.07-1.07s.48-1.07,1.07-1.07,1.07.48,1.07,1.07-.48,1.07-1.07,1.07Z"/>
          <circle class="cls-13" cx="5.93" cy="22.32" r="1.07"/>
          <path class="cls-13" d="M5.93,37.05c-.59,0-1.07-.48-1.07-1.07s.48-1.07,1.07-1.07,1.07.48,1.07,1.07-.48,1.07-1.07,1.07Z"/>
          <circle class="cls-13" cx="5.93" cy="49.64" r="1.07"/>
          <circle class="cls-13" cx="5.93" cy="63.3" r="1.07"/>
          <path class="cls-13" d="M5.93,78.03c-.59,0-1.07-.48-1.07-1.07s.48-1.07,1.07-1.07,1.07.48,1.07,1.07-.48,1.07-1.07,1.07Z"/>
        </g>
        <g>
          <path class="cls-9" d="M291.92,321.08c.33,0,.59.26.59.59s-.26.59-.59.59-.59-.27-.59-.59.26-.59.59-.59Z"/>
          <path class="cls-9" d="M297.72,321.08c.33,0,.59.26.59.59s-.26.59-.59.59-.59-.27-.59-.59.26-.59.59-.59Z"/>
          <circle class="cls-9" cx="297.72" cy="314.12" r=".59"/>
          <path class="cls-9" d="M303.53,321.08c.33,0,.59.26.59.59s-.26.59-.59.59-.59-.27-.59-.59.26-.59.59-.59Z"/>
          <circle class="cls-9" cx="303.53" cy="314.12" r=".59"/>
          <circle class="cls-9" cx="303.53" cy="306.56" r=".59"/>
          <path class="cls-9" d="M309.34,321.08c.33,0,.59.26.59.59s-.26.59-.59.59-.59-.27-.59-.59.26-.59.59-.59Z"/>
          <circle class="cls-9" cx="309.34" cy="314.12" r=".59"/>
          <circle class="cls-9" cx="309.34" cy="306.56" r=".59"/>
          <circle class="cls-9" cx="309.34" cy="299.01" r=".59"/>
          <path class="cls-9" d="M315.14,321.08c.33,0,.59.26.59.59s-.26.59-.59.59-.59-.27-.59-.59.26-.59.59-.59Z"/>
          <circle class="cls-9" cx="315.14" cy="314.12" r=".59"/>
          <circle class="cls-9" cx="315.14" cy="306.56" r=".59"/>
          <circle class="cls-9" cx="315.14" cy="299.01" r=".59"/>
          <circle class="cls-9" cx="315.14" cy="291.46" r=".59"/>
          <path class="cls-9" d="M320.95,321.08c.33,0,.59.26.59.59s-.26.59-.59.59-.59-.27-.59-.59.26-.59.59-.59Z"/>
          <circle class="cls-9" cx="320.95" cy="314.12" r=".59"/>
          <circle class="cls-9" cx="320.95" cy="306.56" r=".59"/>
          <circle class="cls-9" cx="320.95" cy="299.01" r=".59"/>
          <circle class="cls-9" cx="320.95" cy="291.46" r=".59"/>
          <path class="cls-9" d="M320.95,283.31c.33,0,.59.27.59.59s-.26.59-.59.59-.59-.26-.59-.59.26-.59.59-.59Z"/>
        </g>
        <polygon class="cls-30" points="30.67 171.57 24.72 178.36 30.16 184.57 24.72 190.78 30.18 197.01 24.72 203.24 30.67 210.03 30.67 208.85 25.78 203.26 31.29 196.97 25.83 190.73 31.29 184.5 25.83 178.28 30.67 172.75 30.67 171.57"/>
        <g class="cls-15">
          <path class="cls-24" d="M103.98,28.95c-.87,4.65-5.34,7.72-10,6.86-4.65-.87-7.72-5.34-6.86-10,.87-4.65,5.34-7.72,10-6.86,4.65.87,7.72,5.34,6.86,10Z"/>
          <path class="cls-33" d="M100.49,15.35c4.31,0,7.82,3.51,7.82,7.82s-3.51,7.82-7.82,7.82-7.82-3.51-7.82-7.82,3.51-7.82,7.82-7.82M100.49,14.6c-4.73,0-8.57,3.84-8.57,8.57s3.84,8.57,8.57,8.57,8.57-3.84,8.57-8.57-3.84-8.57-8.57-8.57h0Z"/>
        </g>
        <path class="cls-13" d="M314.55,194.58c-1.31,0-2.38,1.06-2.38,2.38s1.06,2.38,2.38,2.38,2.38-1.06,2.38-2.38-1.06-2.38-2.38-2.38ZM314.55,198.55c-.88,0-1.59-.71-1.59-1.59s.71-1.59,1.59-1.59,1.59.71,1.59,1.59-.71,1.59-1.59,1.59Z"/>
        <g class="cls-38">
          <polygon class="cls-28" points="290.72 80.91 300.7 67.06 309.36 80.91 290.72 80.91"/>
          <path class="cls-33" d="M307.04,65.53l7.35,11.75h-15.82l8.46-11.75M307.09,64.18l-9.97,13.85h18.64l-8.66-13.85h0Z"/>
        </g>
        <path class="cls-14" d="M124.99,267.65c-5.26,0-9.52,4.26-9.52,9.52h19.04c0-5.26-4.26-9.52-9.52-9.52Z"/>
        <path class="cls-12" d="M267.13,19.88c2.98,0,5.4,2.42,5.4,5.4h2.66c0-4.45-3.61-8.06-8.06-8.06s-8.06,3.61-8.06,8.06h2.66c0-2.98,2.42-5.4,5.4-5.4Z"/>
        <path class="cls-12" d="M37.13,255.13c0-2.98,2.42-5.4,5.4-5.4v-2.66c-4.45,0-8.06,3.61-8.06,8.06s3.61,8.06,8.06,8.06v-2.66c-2.98,0-5.4-2.42-5.4-5.4Z"/>
      </g>
    </g>
    <g id="OBJECTS">
      <g>
        <g>
          <path class="cls-6" d="M153.43,63.92v43.89h-19.28c-1.71,0-3.1-1.39-3.1-3.1v-37.69c0-1.71,1.39-3.1,3.1-3.1h19.28Z"/>
          <path class="cls-7" d="M228.49,84.7c-1.98,18.66-12.58,23.11-12.58,23.11h-62.48v-43.89c17.53-3.37,25.88-24.96,24.07-35.79.32-2.44.32-4.7.01-6.62,1.24-3.7,4.89-2.96,4.89-2.96,12.05,1.89,12.74,26.9,12.65,35.05-.02,1.41,1.07,2.6,2.48,2.7,4.61.31,14.65,1.22,23.45,3.53,5.78,1.51,8.17,3.03,8.88,6.33.75,3.49-.37,8.97-1.39,18.55Z"/>
        </g>
        <g>
          <path class="cls-13" d="M153.43,63.92v37.21h-19.28c-1.71,0-3.1-1.39-3.1-3.1v-31.01c0-1.71,1.39-3.1,3.1-3.1h19.28Z"/>
          <path class="cls-32" d="M229.88,66.15c-.31,3.05-.86,6.91-1.39,11.86-1.98,18.66-12.58,23.11-12.58,23.11h-62.48s0-37.21,0-37.21c8.74-1.68,15.54-8.14,19.66-15.78,2.97-5.51,3.9-11.72,4.3-17.89.23-3.61-1.17-12.96,5.02-11.7,12.05,1.89,12.74,26.9,12.65,35.05-.02,1.41,1.07,2.6,2.48,2.7,4.61.31,14.65,1.22,23.45,3.53,5.78,1.51,8.17,3.03,8.88,6.33Z"/>
        </g>
        <path class="cls-18" d="M204.91,107.81h9.4l-4.54,4.96v5.38h-6.68v-4.65c0-1.06.22-2.12.66-3.09l1.16-2.6Z"/>
        <g>
          <path class="cls-18" d="M204.64,112.1c1.03-.5,1.71-1.63,1.67-2.78s-.8-2.23-1.86-2.65c-.18-1.84-1.85-3.28-3.67-3.6,1.3,3.01,2.15,6.21,2.49,9.47l1.36-.44Z"/>
          <path class="cls-8" d="M203.17,103.96c.66.25.89.98,1.03,1.6.08.36.16.76.4,1.06.25.31.65.44.96.66.64.44,1.08,1.09,1.16,1.87.09.85-.22,1.69-.51,2.48-.1.26-.47.06-.38-.2.28-.74.57-1.55.45-2.35-.12-.79-.68-1.3-1.34-1.67-.29-.16-.56-.34-.75-.62-.18-.26-.27-.56-.34-.86-.14-.58-.24-1.35-.88-1.59-.26-.1-.06-.47.2-.38Z"/>
        </g>
        <path class="cls-18" d="M143.98,107.81h-9.4l4.54,4.96v5.38h6.68v-4.65c0-1.06-.22-2.12-.66-3.09l-1.16-2.6Z"/>
        <g>
          <path class="cls-13" d="M183.98,156.65c5.61-3.65,10.72-8.06,15.15-13.07,1.56-8.83,2.47-18.3,3.12-27.25,2.74-.28,5.82-.42,8.56-.17,2.06,12.03,2.87,24.09,2.05,36.27-7.55,7.46-15.61,15.8-23.16,23.26l-5.72-19.04Z"/>
          <path class="cls-6" d="M212.03,146.95c.45-.63.82-1.28,1.13-1.95-.04,2.47-.13,4.95-.3,7.43-7.55,7.46-15.61,15.8-23.16,23.26l-1.33-4.43c8.36-7.52,16.61-15.21,23.66-24.31Z"/>
          <path class="cls-6" d="M202.94,120.57c1.9.05,3.81.09,5.71.14.27,0,.29.43.02.43-1.9-.05-3.81-.09-5.71-.14-.27,0-.29-.43-.02-.43Z"/>
        </g>
        <g>
          <path class="cls-13" d="M164.83,156.65c-5.61-3.65-10.72-8.06-15.15-13.07-1.56-8.83-2.47-18.3-3.12-27.25-2.74-.28-5.82-.42-8.56-.17-2.06,12.03-2.87,24.09-2.05,36.27,7.55,7.46,15.61,15.8,23.16,23.26l5.72-19.04Z"/>
          <path class="cls-6" d="M159.47,169.17c.13,1.43.23,2.86.31,4.29l-.67,2.23c-7.55-7.46-15.61-15.8-23.16-23.26-.22-3.23-.32-6.45-.31-9.66,4.14,11.06,13.53,19.54,23.83,26.41Z"/>
          <path class="cls-6" d="M138.46,120.89c2.52-.13,5.04-.26,7.56-.38.27-.01.29.41.02.43-2.52.13-5.04.26-7.56.38-.27.01-.29-.41-.02-.43Z"/>
        </g>
        <g>
          <g>
            <g>
              <path class="cls-27" d="M155.82,289.77c0,1.05,0,2.06.02,3.04h6.07l.34-3.04h-6.43Z"/>
              <path class="cls-27" d="M185.85,289.77c0,1.05,0,2.06.02,3.04h6.07l.34-3.04h-6.43Z"/>
              <path class="cls-6" d="M192.49,207.08c-16.07,1.77-18.4,10.96-18.4,10.96l6.49,38.33,3.41,35.1h10.81c3.27-43.9-2.31-84.4-2.31-84.4Z"/>
              <path class="cls-13" d="M178.41,217.52s7.15-4.58,7.99-8.59l-28.97.95s-4.03,51.76-3.92,79.88h11.05l13.85-72.25Z"/>
              <path class="cls-13" d="M177.6,221.76l-13.04,69.72h-11.05c-.09-20.93,2.13-56.65,3.26-72.68,6.74,2.17,13.77,3.26,20.83,2.97Z"/>
              <path class="cls-6" d="M156.77,218.79c.39-5.52.66-8.91.66-8.91l28.97-.95c-.84,4.01-7.99,8.59-7.99,8.59l-.81,4.24c-7.05.3-14.09-.8-20.83-2.97Z"/>
              <path class="cls-6" d="M183.94,212.96c1.42-1.43,2.66-3.05,2.98-4.59l-27.12-1.28s-.22,2.92-.32,4.13c8.09,1.88,16.36,2.58,24.46,1.75Z"/>
            </g>
            <g>
              <path class="cls-27" d="M162.25,292.35l-7.1-.2c-1.98,2.06-3.39,4.65-4.08,7.42h12.82c-.26-2.47-.79-4.89-1.64-7.22Z"/>
              <path class="cls-22" d="M151.07,299.57c-.07.27-.13.53-.19.8-.08.42.23.82.66.82h11.75c.39,0,.71-.33.68-.72-.02-.3-.05-.59-.08-.89h-12.82Z"/>
            </g>
            <g>
              <path class="cls-27" d="M185.47,292.35l7.1-.2c1.98,2.06,13.89,4.65,14.58,7.42h-23.32c.26-2.47.79-4.89,1.64-7.22Z"/>
              <path class="cls-22" d="M207.15,299.57c.07.27.13.53.19.8.08.42-.23.82-.66.82h-22.26c-.39,0-.71-.33-.68-.72.02-.3.05-.59.08-.89h23.32Z"/>
            </g>
          </g>
          <path class="cls-6" d="M161.45,259.18c-.88-1.51-1.8-2.99-2.53-4.58-.74-1.61-1.26-3.29-1.8-4.98-.07-.21-.36-.12-.32.09.32,1.75.95,3.46,1.67,5.08.72,1.62,1.55,3.24,2.66,4.63.14.18.42-.05.31-.24Z"/>
          <path class="cls-6" d="M155.27,288.73h7.05c.27,0,.29.43.02.43h-7.05c-.27,0-.29-.43-.02-.43Z"/>
        </g>
        <g>
          <path class="cls-20" d="M189.62,161.82c-.09-1.88-1.4-3.51-3.35-4.22-4.13-1.5-8.76-1.96-13.27-1.66-4.14.28-8.2,1.16-12.17,2.33-2.59.76-4.2,3.07-3.81,5.45,2.37,14.17,3.17,28.77,2.26,43.1,10.62,3.08,21.21,3.98,31.26.47.34-14.67-.23-30.77-.92-45.46Z"/>
          <path class="cls-21" d="M174.66,160.02c-1.16.59-2.26,1.31-3.25,2.16-.43-.8-.83-1.62-1.24-2.42-.23-.44-.45-.88-.68-1.33-.22-.43-.42-.92-.73-1.3-.13-.16-.37.01-.32.19.12.45.4.89.6,1.31.23.46.46.92.69,1.38.45.9.94,1.8,1.36,2.72.08.17.3.15.42.05,1.05-.89,2.18-1.68,3.39-2.33.28-.15.03-.57-.25-.43Z"/>
          <path class="cls-21" d="M178.85,160.03c-.02-.39-.03-.77-.03-1.16,0-.34.08-.8-.09-1.12-.06-.12-.24-.11-.3,0-.17.3-.09.74-.09,1.07,0,.4.01.8.03,1.21.03.64.07,1.29.13,1.93-.53-.3-1.06-.61-1.59-.91-.33-.18-.65-.37-.98-.55-.33-.18-.65-.4-1.02-.47-.13-.02-.21.12-.13.22.25.28.6.45.92.64.32.19.64.38.97.57.66.38,1.33.76,1.99,1.14.15.08.38-.02.36-.21-.08-.79-.14-1.57-.17-2.36Z"/>
          <polygon class="cls-25" points="174.78 160.25 173.27 161.44 174.03 162.63 173.89 202.78 176.88 204.34 179.43 202.78 175.92 162.85 176.35 161.27 174.78 160.25"/>
          <path class="cls-13" d="M156.12,166.56c-.51-3.43.89-7.14,3.66-8.15,2.07-.75,4.68-1.46,6.99-1.63,1.87,7.8,9.58,23.76,9.58,23.76,0,0,5.99-18.26,2.47-24.55,2.25-.12,6.54.52,8.8,1.67,2.12,1.08,3.46,4.58,3.62,7.29.98,16.75,4.11,34.16,5.43,51.15-1.63.76-3.77.78-5.54.94-2.87.26-5.75.39-8.63.5-9.33.35-18.56.05-27.38-3.35,1.28-15.91,3.35-31.78.99-47.63Z"/>
          <path class="cls-6" d="M159.47,169.17c1.34,15.13.04,30.52-2.86,45.56-.5-.17-.99-.35-1.48-.54,1.27-15.81,3.32-31.57,1.04-47.31,1.09.78,2.19,1.55,3.31,2.29Z"/>
          <g>
            <path class="cls-6" d="M181.79,170.1l3.16-1.08c.26-.09.53-.18.79-.27.23-.08.49-.14.7-.26.46-.25.28-.79.15-1.19-.7-2.14-1.41-4.28-2.11-6.42-.09-.26.32-.39.41-.13.6,1.82,1.2,3.64,1.8,5.46.14.42.3.85.41,1.28.08.31.12.67-.03.97-.15.3-.45.44-.76.55-.44.15-.88.3-1.32.45-1.02.35-2.04.7-3.07,1.05-.26.09-.39-.32-.13-.41Z"/>
            <path class="cls-6" d="M182.06,170.21c1.19,1.23,2.38,2.47,3.57,3.7.19.2-.1.51-.29.32l-3.57-3.7c-.19-.2.1-.51.29-.32Z"/>
            <path class="cls-6" d="M177.23,184.08c2.7-3.39,5.4-6.78,8.1-10.16.17-.22.49.07.32.29-2.7,3.39-5.4,6.78-8.1,10.16-.17.22-.49-.07-.32-.29Z"/>
          </g>
          <g>
            <path class="cls-6" d="M168.75,170.85l-3.28-.63c-.27-.05-.55-.11-.82-.16-.24-.05-.5-.07-.73-.16-.49-.19-.39-.75-.31-1.16.39-2.22.8-4.44,1.2-6.65.05-.27-.37-.34-.42-.07-.34,1.89-.68,3.77-1.02,5.66-.08.44-.18.88-.23,1.33-.03.32-.03.68.16.95.19.28.51.38.83.44.46.09.91.18,1.37.26,1.06.2,2.12.41,3.18.61.27.05.34-.37.07-.42Z"/>
            <path class="cls-6" d="M168.5,170.99c-1.01,1.39-2.01,2.78-3.02,4.16-.16.22.17.5.33.27,1.01-1.39,2.01-2.78,3.02-4.16.16-.22-.17-.5-.33-.27Z"/>
            <path class="cls-6" d="M175.21,184.05c-3.15-2.98-6.29-5.96-9.44-8.94-.2-.19-.47.14-.27.33,3.15,2.98,6.29,5.96,9.44,8.94.2.19.47-.14.27-.33Z"/>
          </g>
          <path class="cls-6" d="M176.56,181.25c.3,4.78.54,9.57.71,14.36.17,4.79.27,9.58.31,14.37.02,2.7.02,5.39,0,8.09,0,.27-.43.29-.43.02.04-4.79.01-9.58-.08-14.37-.09-4.79-.26-9.58-.49-14.37-.13-2.69-.28-5.39-.45-8.08-.02-.27.41-.29.43-.02Z"/>
          <path class="cls-6" d="M183.97,202.99c2.51.7,5.2.6,7.65-.31.26-.1.39.31.13.41-2.52.93-5.3,1.04-7.88.32-.26-.07-.17-.49.1-.42Z"/>
          <path class="cls-6" d="M161,203.55c2.52.7,5.2.6,7.65-.31.26-.1.39.31.13.41-2.52.93-5.3,1.04-7.88.32-.26-.07-.17-.49.1-.42Z"/>
        </g>
        <g>
          <path class="cls-17" d="M182.39,142.54c.76-2.59.57-5.45-.52-7.93.14-.61.03-1.31-.28-1.85-.31-.54-.79-.97-1.33-1.28-.73-.41-1.62-.6-2.42-.36-.8.24-1.48.97-1.51,1.8-.62-.37-1.14-.74-1.82-.98-.68-.24-1.44-.33-2.13-.13-.7.2-1.32.72-1.52,1.42-.2.7.12,1.54.78,1.83-.53-.65-1.76-.77-2.53-.44-.77.33-1.32,1.05-1.65,1.82-.26.61-.4,1.3-.28,1.95.12.66.53,1.28,1.13,1.56-1.15.57-1.52,1.97-1.28,3.22.24,1.26,1.03,2.34,1.87,3.31s1.75,1.9,2.33,3.05l11.18-7.01Z"/>
          <path class="cls-5" d="M182.02,142.8c.67-2.5.51-5.25-.46-7.63.13-.58.02-1.26-.25-1.78-.27-.52-.7-.94-1.19-1.23-.65-.39-1.44-.57-2.15-.34-.71.23-1.31.93-1.34,1.74-.55-.36-1.01-.71-1.62-.94s-1.28-.32-1.9-.13c-.62.19-1.17.7-1.35,1.37s.11,1.48.69,1.76c-.47-.62-1.56-.74-2.25-.42-.68.32-1.18,1.01-1.47,1.75-.23.59-.36,1.25-.25,1.88s.47,1.23,1.01,1.5c-1.02.55-1.35,1.89-1.14,3.1.21,1.21.92,2.25,1.66,3.18.74.93,1.56,1.83,2.07,2.93l9.94-6.75Z"/>
          <g>
            <g>
              <g>
                <g>
                  <path class="cls-18" d="M170.2,146.09c.27,3.45.19,6.94-.24,10.38-.09.7.21,1.38.78,1.79,1.58,1.11,3.61,1.6,5.51,1.31.97-.15,1.64-1.03,1.56-2.01-.19-2.23-.24-4.36-.19-6.67-1.89-2.4-4.52-3.86-7.43-4.8Z"/>
                  <path class="cls-8" d="M177.63,150.89c-1.89-2.4-4.52-3.86-7.43-4.8.07.91.12,1.82.14,2.73,1.14,3.84,4.13,6.23,7.38,7.17-.1-1.68-.13-3.34-.09-5.1Z"/>
                </g>
                <g>
                  <path class="cls-18" d="M182.43,140.46c.64,4.82-.36,13.09-4.01,13.46-4.28.44-6.91-3.37-7.87-6.88.02.06-.39.29-.81.26-.41-.02-.96-.51-1.18-.85-.44-.65-.88-1.67-.41-2.42.56-.9,1.81-1.08,2.34-.03-.04-1.76.53-3.38,1.14-5.02.2-.54.62-.97,1.16-1.16,2.47-.86,5.51-.91,8.03-.16.63.19,1.1.7,1.28,1.32.15.51.27,1.06.32,1.46Z"/>
                  <path class="cls-5" d="M177.27,140.76c-.78-.99-2.91-.31-3.7.33-.14.12-.32.26-.3.47,0,.11.07.2.17.23.24.07.47-.13.67-.24.27-.14.55-.24.84-.31.36-.08.74-.1,1.1-.06.36.04.7.2,1.06.15.28-.04.29-.39.15-.56Z"/>
                  <path class="cls-5" d="M176.13,142.49c-.02-.06-.05-.11-.1-.15-.04-.05-.09-.08-.15-.1-.06-.03-.12-.04-.18-.04-.04,0-.08.01-.13.02-.08.02-.15.06-.21.12-.02.03-.05.06-.07.1-.04.07-.06.15-.06.24v.05c0,.07.01.13.04.18.02.06.05.11.1.15.04.05.09.08.15.1.06.03.12.04.18.04l.13-.02c.08-.02.15-.06.21-.12.02-.03.05-.06.07-.1.04-.07.06-.15.06-.24v-.05c0-.07-.01-.13-.04-.18Z"/>
                  <path class="cls-5" d="M181.32,142.78c-.02-.06-.05-.11-.1-.15-.04-.05-.09-.08-.15-.1-.06-.03-.12-.04-.18-.04-.04,0-.08.01-.13.02-.08.02-.15.06-.21.12-.02.03-.05.06-.07.1-.04.07-.06.15-.06.24v.05c0,.07.01.13.04.18.02.06.05.11.1.15.04.05.09.08.15.1.06.03.12.04.18.04l.13-.02c.08-.02.15-.06.21-.12.02-.03.05-.06.07-.1.04-.07.06-.15.06-.24v-.05c0-.07-.01-.13-.04-.18Z"/>
                  <path class="cls-5" d="M182.26,141.44c-.18-.36-.58-.54-.96-.64-.37-.1-.75-.11-1.12-.02-.17.04-.28.22-.25.39.04.29.28.3.51.3.31,0,.6.04.89.16.19.08,1.2.58,1-.05-.02-.05-.04-.1-.06-.14Z"/>
                  <path class="cls-4" d="M177.83,150.89c-.14-.04-.32,0-.46,0-.13,0-.29,0-.41-.03-.14-.02-.28-.05-.42-.09-.15-.04-.29-.11-.45-.09-.17.01-.23.18-.13.31.11.14.28.19.44.24.15.05.3.09.46.11.16.02.33.04.49.05.17,0,.38.02.53-.07.18-.11.14-.38-.06-.44Z"/>
                  <path class="cls-4" d="M170.1,145.82c-.15.05-.36-.03-.39-.2-.02-.09.03-.16.08-.23.05-.07.13-.11.21-.11.12,0,.22-.12.18-.24-.14-.51-.55-1.03-1.13-.97-.26.03-.49.17-.6.41-.05.11-.06.24-.03.36.02.07.1.25.2.16.06-.05.04-.13.06-.2.02-.07.05-.14.09-.2.09-.13.23-.18.38-.16.3.03.49.26.6.52-.27.12-.44.42-.36.72.09.33.47.55.79.45.2-.06.11-.38-.09-.31Z"/>
                </g>
              </g>
              <path class="cls-8" d="M180.13,145.22c-.22-.21-.49-.34-.74-.51-.27-.19-.38-.41-.34-.74.02-.23-.28-.25-.39-.1-.32.45.12,1.01.48,1.27.22.16.46.27.65.46.17.17.29.38.37.61.15.46.07.97-.23,1.35-.33.41-.77.52-1.25.64-.15.04-.14.26,0,.3.5.15,1.07-.12,1.44-.45.41-.36.64-.89.63-1.43,0-.53-.23-1.06-.61-1.42Z"/>
            </g>
            <path class="cls-5" d="M178.51,149.91c-1.54.45-3.19-.15-4.07-1.48-.15-.23.21-.46.36-.23.78,1.17,2.23,1.71,3.58,1.31.26-.08.4.33.13.41Z"/>
          </g>
        </g>
        <path class="cls-6" d="M191.32,164.37c.33,6.39.91,12.76,1.74,19.1.23,1.78.48,3.55.76,5.32.04.27-.39.29-.43.02-.97-6.32-1.69-12.68-2.16-19.06-.13-1.79-.24-3.58-.34-5.37-.01-.27.41-.29.43-.02Z"/>
        <g>
          <path class="cls-18" d="M144.25,112.1c-1.03-.5-1.71-1.63-1.67-2.78.04-1.14.8-2.23,1.86-2.65.18-1.84,1.85-3.28,3.67-3.6-1.3,3.01-2.15,6.21-2.49,9.47l-1.36-.44Z"/>
          <path class="cls-8" d="M145.72,103.96c-.66.25-.89.98-1.03,1.6-.08.36-.16.76-.4,1.06-.25.31-.65.44-.96.66-.64.44-1.08,1.09-1.16,1.87-.09.85.22,1.69.51,2.48.1.26.47.06.38-.2-.28-.74-.57-1.55-.45-2.35.12-.79.68-1.3,1.34-1.67.29-.16.56-.34.75-.62.18-.26.27-.56.34-.86.14-.58.24-1.35.88-1.59.26-.1.06-.47-.2-.38Z"/>
        </g>
      </g>
      <g>
        <path class="cls-3" d="M252.64,140.62c3.06.87,5.5,3.62,6,6.77.12.72.15,1.5.56,2.11.44.64,1.27,1.04,1.45,1.8.18.81-.48,1.71-.1,2.44.39.75,1.6.75,1.98,1.51.42.84-.53,1.88-.15,2.73.35.78,1.45.76,2.18,1.2.67.4,1.01,1.23,1.01,2.02,0,.79-.3,1.54-.66,2.24-2.1,4.16-6.38,6.99-10.95,7.93-4.57.93-9.38.11-13.68-1.69-1.02-.43-2.06-.94-2.75-1.81-.69-.87-.92-2.19-.26-3.08.25-.34.6-.59.78-.97.62-1.33-1.36-2.68-1.06-4.12.16-.78.92-1.25,1.57-1.71.65-.46,1.32-1.15,1.15-1.93-.08-.38-.36-.7-.45-1.08-.23-.99.8-1.75,1.45-2.53,1.16-1.39,1.23-3.35,1.46-5.14.62-4.95,5.61-8.06,10.46-6.68Z"/>
        <path class="cls-39" d="M252.56,142.39c2.89.82,5.19,3.42,5.66,6.38.11.68.14,1.42.53,1.99.41.61,1.2.98,1.36,1.7.17.76-.46,1.61-.09,2.3.37.71,1.51.71,1.86,1.42.39.79-.5,1.77-.14,2.58.33.73,1.37.72,2.06,1.13.64.38.96,1.16.95,1.9,0,.74-.28,1.46-.62,2.12-1.98,3.93-6.02,6.6-10.33,7.48s-8.84.1-12.9-1.6c-.96-.4-1.94-.89-2.59-1.71-.65-.82-.87-2.07-.25-2.91.23-.32.57-.56.74-.92.59-1.25-1.28-2.53-1-3.89.15-.73.87-1.18,1.48-1.61.61-.43,1.24-1.09,1.08-1.82-.08-.36-.34-.66-.43-1.02-.22-.93.75-1.65,1.37-2.38,1.1-1.31,1.16-3.16,1.37-4.85.59-4.67,5.29-7.6,9.87-6.3Z"/>
        <g>
          <path class="cls-31" d="M281.19,152.85c.02-.55-.34-1.05-.8-1.34-.46-.3-1.01-.42-1.54-.52-1.57-.3-3.17-.46-4.76-.47-.83,0-1.54.58-1.7,1.39-.08.42-.16.83-.18,1.22-1.08.74-1.04,2.43-.86,3.73-2.53,2.23-6.65,5.39-9.92,6.22-3.27.83-6.76,2.19-8.33,5.17-1.09,2.07-1.04,4.53-.94,6.86.07,1.7.25,3.62,2.48,4.18.7.17,1.44.15,2.15.01,4.57-.88,7.5-4.84,11.47-7.23,3.8-2.28,7.67-4.72,10.22-8.35s5.14-7.15,2.72-10.87Z"/>
          <path class="cls-31" d="M281.59,158.59c.76-1.89.87-3.79-.4-5.74.02-.55-.34-1.05-.8-1.34-.46-.3-1.01-.42-1.54-.52-1.57-.3-3.17-.46-4.76-.47-.83,0-1.54.58-1.7,1.39-.08.42-.16.83-.18,1.22-1.08.74-1.04,2.43-.86,3.73-2.53,2.23-6.65,5.39-9.92,6.22-3.27.83-6.76,2.19-8.33,5.17-1.09,2.07-1.04,4.53-.94,6.86.02.38.04.77.09,1.16,10.74-3.55,21.71-9.13,29.35-17.68Z"/>
          <path class="cls-22" d="M252.24,176.27c.17,1.34.66,2.59,2.39,3.03.7.17,1.44.15,2.15.01,4.57-.88,7.5-4.84,11.47-7.23,3.8-2.28,7.67-4.72,10.22-8.35,1.21-1.72,2.43-3.42,3.12-5.13-7.65,8.55-18.61,14.13-29.35,17.68Z"/>
          <path class="cls-34" d="M273.23,136.55l-.39,14.95c-.03,1.1.8,2.06,1.9,2.14.89.07,2-.04,3.2-.61.82-.39,1.27-1.29,1.14-2.19l-2.18-14.57s-1.95-.16-3.67.27Z"/>
          <path class="cls-22" d="M276.34,160.06c-1.72-.26-3.27-1.23-4.28-2.64-.16-.22-.47.07-.32.29,1.08,1.5,2.75,2.51,4.58,2.78.27.04.29-.39.02-.43Z"/>
          <path class="cls-22" d="M277.46,154.83c-1.3,0-2.58-.34-3.7-1.01-.24-.14-.47.22-.23.36,1.18.7,2.53,1.08,3.91,1.07.27,0,.29-.43.02-.43Z"/>
        </g>
        <path class="cls-31" d="M251,161.67c-2.85-.76-5.95-.58-8.69.5-1.29.51-2.67,1.49-2.61,2.87.05,1.2,1.16,2.05,2.21,2.62,3.9,2.1,8.57,2.73,12.89,1.74,2.1-.48,4.19-2.23,2.31-4.27-1.56-1.69-3.9-2.87-6.1-3.46Z"/>
        <path class="cls-31" d="M241.83,166.88c-3.05.49-5.52,2.97-7.31,5.69-1.79,2.72-3.12,5.8-5.09,8.38-1.61,2.12-3.63,3.87-5.08,6.13-1.44,2.26-2.24,5.32-1.07,7.76,1.12,2.32,3.71,3.4,6.12,3.43,1.75.02,3.63-.49,4.77-1.94.85-1.08,1.18-2.56,1.13-3.98,0-.29-.03-.57-.07-.86-.21-1.64.41-3.26,1.53-4.39.35-.36.67-.76.94-1.14,1.97-2.75,3.81-5.7,4.76-9.03.95-3.33,1-7.06-.64-10.06Z"/>
        <path class="cls-31" d="M242.19,177.8c.1-.29.19-.57.28-.86.95-3.33,1-7.06-.64-10.06-3.05.49-5.52,2.97-7.31,5.69-1.79,2.72-3.12,5.8-5.09,8.38-1.61,2.12-3.63,3.87-5.08,6.13s-2.24,5.32-1.07,7.76c1.12,2.32,3.71,3.4,6.12,3.43,1.75.02,3.63-.49,4.77-1.94.85-1.08,1.18-2.56,1.13-3.98-.01-.29-.03-.57-.07-.86,0-.06,0-.13-.01-.19-.6-1.28-1.27-2.43-2.13-3.57,3.45-2.8,6.68-6.15,9.09-9.93Z"/>
        <path class="cls-22" d="M233.11,187.73c.86,1.15,1.53,2.3,2.13,3.57-.14-1.58.47-3.11,1.54-4.2.35-.36.67-.76.94-1.14,1.8-2.51,3.48-5.18,4.48-8.16-2.41,3.78-5.64,7.12-9.09,9.93Z"/>
        <path class="cls-6" d="M255,214.78c1.64-1.99,3.02-4.04,3.26-5.55l-22-4.06c-.69,1.79-1.71,3.61-2.24,5.45,6.62,2.48,14.02,4.25,20.97,4.16Z"/>
        <g>
          <g>
            <path class="cls-10" d="M251.83,295.51l4.56-.13c1.27,1.32,8.93,2.99,9.37,4.77h-14.99c.17-1.58.51-3.14,1.05-4.64Z"/>
            <path class="cls-13" d="M265.76,300.15c.04.17.09.34.12.51.05.27-.15.52-.42.52h-14.3c-.25,0-.45-.21-.43-.46.01-.19.03-.38.05-.57h14.99Z"/>
          </g>
          <path class="cls-6" d="M263,207.81c-6.62,2.48-9.69,1.51-16.63,1.42-.61,3.92,1.82,12.29,1.82,12.29l.28,6.13h16.97c-.07-6.95-.74-13.91-2.44-19.84Z"/>
          <path class="cls-11" d="M248.46,227.65l.2,2.91,16.6.19c.14-1.02.21-2.06.18-3.1h-16.97Z"/>
          <g>
            <path class="cls-10" d="M244.68,295.51l-4.56-.13c-1.27,1.32-3.37,2.99-3.82,4.77h9.43c-.17-1.58-.51-3.14-1.05-4.64Z"/>
            <path class="cls-13" d="M236.3,300.15c-.04.17-.09.34-.12.51-.05.27.15.52.43.52h8.75c.25,0,.45-.21.43-.46-.02-.19-.03-.38-.05-.57h-9.43Z"/>
          </g>
          <path class="cls-13" d="M248.48,221.52s3.67-3.29,6.53-6.74c-6.95.09-14.35-1.68-20.97-4.16-1.59,5.53-2.37,11.25-2.61,17.03h16.77l.28-6.13Z"/>
          <path class="cls-36" d="M231.42,227.65c-.11,1.03-.1,2.07.01,3.1h16.76v-3.1h-16.77Z"/>
        </g>
        <path class="cls-31" d="M261.21,192.81c.03-8.14.88-14.75,1.21-22.88.04-.9-.24-1.91-1.02-2.31-11.63-5.94-20.23-1.12-22.12.25-.97.7-1.39,1.97-1.02,3.13,2.11,6.75,1.94,13,.81,19.99-.88,5.46-6.75,11.87-5.28,18.91,9.36,4.19,20.59,3.78,30.86,1.82,2.73-4.89-3.46-14.47-3.44-18.91Z"/>
        <g>
          <path class="cls-34" d="M247.44,154.6c.43,3.38.62,6.8.58,10.2,0,.69.24,1.35.65,1.72,1.14,1.01,2.53,1.4,3.78,1.02.64-.19,1.03-1.1.9-2.05-.28-2.19-.47-4.27-.6-6.54-1.44-2.26-3.3-3.58-5.31-4.35Z"/>
          <path class="cls-37" d="M252.75,158.96c-1.44-2.26-3.3-3.58-5.31-4.35.11.89.21,1.78.29,2.68,1.37,2.73,3.32,5.45,5.44,6.69-.18-1.65-.32-3.27-.42-5.01Z"/>
        </g>
        <path class="cls-22" d="M260.96,210.54c-3.11.9-6.33,1.4-9.57,1.5-3.24.1-6.49-.2-9.65-.89-1.79-.39-3.54-.91-5.26-1.56-.26-.1-.39.31-.13.41,3.05,1.14,6.25,1.9,9.49,2.25,3.26.36,6.56.31,9.8-.14,1.83-.25,3.64-.64,5.41-1.15.26-.08.17-.49-.1-.42Z"/>
        <g>
          <g>
            <path class="cls-34" d="M256.5,148.29c1.19,5.25-.18,11.37-1.56,11.58-4.6.71-7.65-3.58-7.68-3.64.03.05-.66.43-1.06.5-.4.07-1.04-.26-1.33-.54-.57-.52-1.23-1.39-.96-2.22.33-.99,1.83-1.47,2.58-.59,1.4-2.71.19-4.13.13-6.1,2.27-1.78,5.23-2.56,8.17-2.34.49.04,1.6,2.84,1.71,3.33Z"/>
            <path class="cls-5" d="M251.19,150.64c-.03-.05-.08-.09-.13-.12-.05-.03-.11-.05-.17-.06-.06-.02-.12-.01-.18,0-.04.02-.08.03-.12.05-.07.04-.13.1-.17.17-.02.04-.03.07-.05.11-.02.08-.03.16,0,.24v.05c.02.06.05.12.09.17.03.05.08.09.13.12.05.03.11.05.17.06.06.02.12.01.18,0l.12-.05c.07-.04.13-.1.17-.17.02-.04.03-.07.05-.11.02-.08.03-.16,0-.24v-.05c-.02-.06-.05-.12-.09-.17Z"/>
            <path class="cls-5" d="M255.68,149.85c-.03-.05-.08-.09-.13-.12-.05-.03-.11-.05-.17-.06-.06-.02-.12-.01-.18,0-.04.02-.08.03-.12.05-.07.04-.13.1-.17.17-.02.04-.03.07-.05.11-.02.08-.03.16,0,.24v.05c.02.06.05.12.09.17.03.05.08.09.13.12.05.03.11.05.17.06.06.02.12.01.18,0l.12-.05c.07-.04.13-.1.17-.17.02-.04.03-.07.05-.11.02-.08.03-.16,0-.24v-.05c-.02-.06-.05-.12-.09-.17Z"/>
            <path class="cls-37" d="M246.19,155.24c-.13.08-.35.06-.42-.1-.04-.08-.01-.16.03-.24.04-.08.1-.13.17-.15.12-.03.18-.17.12-.27-.25-.45-.76-.85-1.31-.66-.24.09-.43.28-.48.54-.02.12,0,.24.05.35.03.06.16.21.23.1.04-.06,0-.13.01-.2,0-.07.02-.15.04-.22.05-.14.18-.22.33-.24.29-.04.53.14.7.36-.23.18-.32.5-.17.77.16.3.57.42.86.24.18-.11.02-.39-.16-.28Z"/>
          </g>
          <path class="cls-39" d="M251.85,147.88c-.96.09-1.88.45-2.66,1.03-.22.16.06.48.28.32.71-.54,1.57-.85,2.45-.93.12-.01.19-.15.17-.25-.02-.12-.14-.18-.25-.17Z"/>
          <path class="cls-39" d="M256.18,147.99c-.46-.44-1.12-.64-1.75-.5-.11.02-.2.14-.17.25.03.11.13.19.25.17.07-.01.13-.02.2-.03,0,0,.03,0,.03,0,0,0,.02,0,.03,0,.03,0,.06,0,.1,0,.07,0,.13,0,.2.02.02,0,.03,0,.05,0,0,0,.02,0,.02,0,0,0,.03,0,.04,0,.02,0,.03,0,.05.01.06.02.12.04.18.06.03.01.06.02.09.04,0,0,0,0,.01,0,0,0,0,0,0,0,.02,0,.03.02.05.03.06.03.11.06.16.1.03.02.06.04.08.06,0,0,.02.01.02.02,0,0,.03.03.03.03.08.08.21.1.3.02.08-.07.1-.22.02-.3Z"/>
          <path class="cls-37" d="M254.64,157.21c-.47.07-.93.14-1.4.2-.11.02-.19.14-.17.25.03.12.13.19.25.17.47-.07.93-.14,1.4-.2.11-.02.19-.14.17-.25-.03-.12-.13-.19-.25-.17Z"/>
          <path class="cls-37" d="M255.23,153.13c-.16-.24-.4-.38-.65-.52-.2-.11-.42-.22-.5-.45-.04-.11-.19-.14-.29-.1-.11.06-.14.18-.1.29.17.48.7.56,1.04.86.15.13.23.29.13.47-.13.21-.37.34-.54.51-.08.08-.1.21-.02.3.07.08.22.1.3.02.2-.21.46-.35.61-.59.15-.25.17-.55,0-.79Z"/>
          <path class="cls-5" d="M254.59,156.01c-.06-.11-.18-.14-.29-.1-.61.23-1.3.26-1.94.09-.11-.03-.23.02-.27.13-.04.1.02.24.13.27.75.21,1.54.17,2.27-.11.11-.04.14-.19.1-.29Z"/>
        </g>
        <g>
          <path class="cls-22" d="M245.08,198.46c-.41,2.57-1.88,4.91-4,6.42-.22.16.07.47.29.32,2.21-1.58,3.71-4.04,4.13-6.72.04-.27-.38-.29-.43-.02Z"/>
          <path class="cls-22" d="M258.38,197.86c-4.37.13-8.74.25-13.11.38-.27,0-.29.43-.02.43,4.37-.13,8.74-.25,13.11-.38.27,0,.29-.43.02-.43Z"/>
          <path class="cls-22" d="M261.02,203.27c-1.68-1.14-2.65-3.17-2.5-5.19.02-.27-.41-.29-.43-.02-.17,2.17.89,4.35,2.69,5.57.23.15.46-.21.23-.36Z"/>
        </g>
        <path class="cls-34" d="M244.59,200.33l-13.25-10.03s-3.16,1.63-3,5.83l14.33,7.35s1.27-1.49,1.92-3.14Z"/>
        <path class="cls-22" d="M231.45,190.14c-2.48,1.15-4,3.94-3.66,6.65.03.27.45.18.42-.1-.32-2.52,1.14-5.11,3.44-6.18.25-.12.05-.49-.2-.38Z"/>
        <path class="cls-22" d="M233.65,190.09c-1.11-1.35-3.07-1.82-4.69-1.18-.25.1-.05.48.2.38,1.44-.58,3.19-.1,4.17,1.09.18.21.49-.08.32-.29Z"/>
        <path class="cls-22" d="M239.87,176.75c-.02-.27-.45-.29-.43-.02.29,4.08.18,8.18-.32,12.25-.03.27.39.29.43.02.5-4.06.61-8.16.32-12.25Z"/>
        <path class="cls-22" d="M254.52,165.04c-.09-.26-.5-.17-.42.1.34,1.01-.18,1.97-.77,2.76-.28.36-.56.77-.92,1.05-.41.32-.83.26-1.24-.02-.38-.26-.71-.58-1.08-.85-.38-.29-.79-.55-1.2-.79-.82-.48-1.69-.86-2.59-1.15-.93-.3-2.15-.67-2.31-1.8-.04-.27-.45-.18-.42.1.14,1.02,1.09,1.59,1.98,1.91,1.06.38,2.08.72,3.06,1.29.47.27.92.57,1.35.9.41.31.78.71,1.25.93.99.49,1.7-.35,2.26-1.06.74-.94,1.45-2.12,1.04-3.35Z"/>
        <path class="cls-10" d="M247.62,170.31c-.09-.26-.51-.16-.42.1.93,2.65,1.18,5.49.74,8.26-.04.27.38.29.43.02.45-2.8.19-5.69-.75-8.37Z"/>
        <path class="cls-10" d="M255.1,169.69c-.08-.26-.5-.17-.42.1.96,3.05,1.14,6.33.47,9.47-.06.27.35.4.41.13.68-3.21.52-6.56-.46-9.69Z"/>
        <path class="cls-34" d="M240.12,295.38l-2.61-14.22c-.89-4.82-1.28-14.85-1.16-19.75l.12-5.18-4.24-25.48h15.12l-4.08,26.26.54,2.62c1.2,5.77,1.68,16.79,1.43,22.68l-.55,13.2-4.56-.13Z"/>
        <path class="cls-34" d="M265.26,230.75l-8.87,64.63h-4.56l-.77-17.47c-.22-5.02.51-15.17,2.17-19.91h0l-3.92-27.43,15.95.18Z"/>
        <polygon class="cls-37" points="247.34 230.75 232.22 230.75 232.45 232.12 247.13 232.12 247.34 230.75"/>
        <path class="cls-34" d="M243.26,257.01l3.87-24.88h-14.68l4.01,24.11-.12,5.18c-.11,4.9.28,14.93,1.16,19.75l2.61,14.22,4.56.13.55-13.2c.25-5.89-.23-16.91-1.43-22.68l-.54-2.62Z"/>
        <polygon class="cls-37" points="265.26 230.75 249.31 230.57 249.53 232.12 265.07 232.12 265.26 230.75"/>
        <path class="cls-34" d="M249.53,232.12l3.69,25.88h0c-1.66,4.75-2.39,14.89-2.17,19.91l.77,17.47h4.56l8.68-63.26h-15.54Z"/>
        <path class="cls-34" d="M276.96,137.14v-.04l2.6-4.86-2.79-2.12-2.76,1.06-.49,4.06c-.2.6-.22,1.03-.27,1.69l3.71.22Z"/>
        <polygon class="cls-32" points="276.46 81.74 286.06 101.19 307.53 104.31 291.99 119.46 295.66 140.84 276.46 130.75 257.25 140.84 260.92 119.46 245.38 104.31 266.85 101.19 276.46 81.74"/>
        <path class="cls-7" d="M253.96,103.07l-8.58,1.25,15.54,15.14-3.67,21.38,19.2-10.1,19.2,10.1-3.11-18.15c-14.94-.64-29.78-7.62-38.58-19.63Z"/>
        <g>
          <path class="cls-34" d="M274.02,136.58c.59-.4.98-1.29.95-2.2-.02-.9-.46-1.76-1.06-2.1-.1-1.45-1.06-2.59-2.1-2.85.74,2.38,1.23,4.92,1.43,7.49l.78-.35Z"/>
          <path class="cls-37" d="M273.18,130.14c.38.2.51.77.59,1.27.05.29.09.6.23.84.14.24.37.35.55.52.36.35.61.86.66,1.48.05.67-.12,1.34-.29,1.96-.05.2-.27.04-.22-.16.16-.58.33-1.23.26-1.86-.07-.62-.39-1.03-.77-1.32-.16-.13-.32-.27-.43-.49-.1-.2-.15-.44-.2-.68-.08-.46-.14-1.07-.5-1.26-.15-.08-.03-.37.11-.3Z"/>
        </g>
        <path class="cls-39" d="M252.73,145.3c-.39.49-1,.84-1.57,1.2-.56.37-1.12.79-1.34,1.34-.25.62-.02,1.3-.05,1.95-.04.86-.54,1.7-1.35,2.27-.82.57-1.93.85-3.01.76-.12-2.05-.2-4.21,1.02-6.02.8-1.18,2.15-2.1,3.7-2.6,1.31-.42,4.1-.78,2.59,1.1Z"/>
      </g>
      <g>
        <path class="cls-13" d="M102.27,151.08c-.66.85-1.3,1.65-1.88,2.35-3.8.81-4.99,1.99-6.57,5.54l2.77,13.53c5.52-1.92,9.73-7.36,13.4-11.9.31-.39.62-.77.92-1.15-.29-.01-.58-.05-.87-.1-3.92-.65-7.33-4.3-7.77-8.27Z"/>
        <path class="cls-26" d="M114.79,146.67c-.58-1.82-1.92-3.76-3.83-3.71-1.04.02-1.96.65-2.76,1.31-1.82,1.52-4,4.33-5.93,6.81.44,3.97,3.86,7.62,7.77,8.27.3.05.59.09.87.1,3.21-4.06,5.51-7.69,3.87-12.78Z"/>
        <path class="cls-26" d="M77.33,159.98c.03-1.09-.51-2.15-1.29-2.92-.78-.77-1.79-1.27-2.83-1.62-2.22-.75-4.72-.75-7-.18-4.06-2.76-7.97-5.74-11.71-8.92-2.31,1.71-4.72,5.33-6.53,7.56,7.09,8.68,16.34,14.43,26.87,18.3l2.49-12.22Z"/>
        <path class="cls-13" d="M77.33,159.98c.03-1.09-.51-2.15-1.29-2.92-.78-.77-1.79-1.27-2.83-1.62-2.22-.75-4.72-.75-7-.18-1.23-.84-2.44-1.7-3.65-2.58-2.49,3.18-3.63,7.01-4.1,11.03,4.95,3.55,10.46,6.31,16.37,8.48l2.49-12.22Z"/>
        <path class="cls-6" d="M72.83,171.43c-4.69-3.65-9.18-7.57-13.72-11.38-.29,1.19-.51,2.42-.65,3.67,4.39,3.14,9.21,5.67,14.37,7.72Z"/>
        <g>
          <g>
            <g>
              <path class="cls-22" d="M72.22,208.26c14.57,1.75,14.36,10.83,14.36,10.83l-5.89,37.85-4.2,32.98h-6.95c-2.96-43.34,2.68-81.65,2.68-81.65Z"/>
              <path class="cls-31" d="M82.66,218.57s-6.48-4.52-7.24-8.48l24.33.94s4.07,51.11,3.97,78.88h-6.89l-14.16-71.34Z"/>
              <path class="cls-26" d="M103.15,289.91c0,1.03,0,2.04-.02,3h-5.5l-.31-3h5.83Z"/>
              <path class="cls-26" d="M75.91,289.91c0,1.03,0,2.04-.02,3h-5.5l-.31-3h5.83Z"/>
              <path class="cls-22" d="M77.65,214.06c-1.29-1.41-2.41-3.01-2.71-4.54l24.59-1.27s.2,2.88.29,4.07c-7.33,1.86-14.83,2.55-22.18,1.73Z"/>
            </g>
            <g>
              <path class="cls-13" d="M97.32,292.46l6.44-.19c1.79,2.03,3.07,4.59,3.7,7.33h-11.62c.23-2.43.71-4.83,1.49-7.13Z"/>
              <path class="cls-22" d="M107.45,299.6c.06.26.12.52.17.79.07.42-.21.8-.6.8h-10.66c-.35,0-.64-.33-.61-.71.02-.29.05-.59.08-.88h11.62Z"/>
            </g>
            <g>
              <path class="cls-13" d="M76.26,292.46l-6.44-.19c-1.79,2.03-12.6,4.59-13.22,7.33h21.15c-.23-2.43-.71-4.83-1.49-7.13Z"/>
              <path class="cls-22" d="M56.6,299.6c-.06.26-.12.52-.17.79-.07.42.21.8.6.8h20.18c.35,0,.64-.33.61-.71-.02-.29-.05-.59-.08-.88h-21.15Z"/>
            </g>
          </g>
          <path class="cls-22" d="M98.05,259.71c.8-1.49,1.63-2.95,2.29-4.52.67-1.59,1.15-3.25,1.63-4.91.06-.2.33-.12.29.09-.29,1.73-.87,3.41-1.52,5.02-.65,1.6-1.41,3.2-2.41,4.57-.13.18-.38-.05-.28-.24Z"/>
        </g>
        <path class="cls-13" d="M72.82,161.74c.1-1.99,1.36-3.73,3.2-4.5,3.92-1.64,8.29-2.18,12.55-1.91,3.91.25,7.73,1.14,11.47,2.33,2.45.78,3.93,3.25,3.53,5.79-2.3,14.5-3.24,29.39-2.66,44.04.04.95.13,2.32-.78,2.61-8.37,2.61-20.3,3.04-28.26.92-1.98-.53-.42-2.35-.42-4.39-.04-14.63.64-30.4,1.39-44.87Z"/>
        <g>
          <path class="cls-26" d="M91.21,146.04c-.25,3.26-.18,6.54.22,9.79.08.66-.2,1.31-.74,1.68-1.49,1.05-3.4,1.51-5.19,1.24-.91-.14-1.55-.98-1.48-1.89.17-2.11.23-4.11.18-6.29,1.78-2.26,4.26-3.64,7.01-4.53Z"/>
          <path class="cls-35" d="M84.21,150.57c1.78-2.26,4.26-3.64,7.01-4.53-.11,1.39-.15,2.78-.14,4.18-1.24,3.4-3.49,6.64-6.52,8.05-.36-.36-.57-.87-.52-1.41.17-2.11.23-4.11.18-6.29Z"/>
          <path class="cls-16" d="M91.84,145.23c.38-1.42.75-2.83,1.13-4.25.2-.74.39-1.51.25-2.26-.15-.75-.75-1.47-1.52-1.48-2.03-2.98-5.7-4.67-9.28-4.23-1.23.15-2.49.57-3.33,1.48-.97,1.06-1.2,2.59-1.19,4.03.01,1.71.78,1.89,1.95,3.14,1.11,1.18,2.37,3.29,3.97,3.56,2.72.46,5.31.44,8.03.02Z"/>
          <path class="cls-1" d="M91.45,145.26c.34-1.29.68-2.58,1.02-3.87.18-.67.36-1.38.22-2.06-.13-.68-.68-1.34-1.37-1.35-1.84-2.72-5.16-4.25-8.4-3.86-1.12.14-2.26.52-3.01,1.35-.87.97-1.09,2.36-1.08,3.67.01,1.56.7,1.72,1.76,2.86,1.01,1.08,2.14,3,3.59,3.25,2.46.42,4.8.4,7.27.01Z"/>
          <g>
            <path class="cls-26" d="M79.68,140.73c-.61,4.55,1.26,12.61,3.78,12.7,5.37.19,6.52-3.18,7.42-6.49-.02.06.37.27.76.25.39-.02.9-.48,1.12-.8.41-.62.83-1.57.39-2.28-.53-.85-1.71-1.02-2.21-.03.04-1.66-.51-3.2-1.08-4.76-.18-.49-.57-.89-1.07-1.06-2.39-.84-5.35-.87-7.76-.11-.47.15-.84.52-.99,1-.17.54-.31,1.15-.37,1.58Z"/>
            <path class="cls-2" d="M88.53,148.2c-2.66-.72-5.63-.43-8.04.86.71,2.45,1.77,4.33,2.97,4.37,5.12.19,6.4-2.87,7.29-6.03l.35-3.49c-.86,1.43-1.72,2.86-2.57,4.29Z"/>
            <path class="cls-26" d="M93.15,144.1c-.44-.71-1.34-.94-1.91-.42-.05.08-.09.15-.14.23l-.35,3.49c.04-.15.09-.31.13-.46-.02.06.37.27.76.25.39-.02.9-.48,1.12-.8.41-.62.83-1.58.39-2.28Z"/>
            <path class="cls-26" d="M90.94,144.08c.04-1.66-.51-3.2-1.08-4.76-.18-.49-.57-.89-1.07-1.06-2.39-.84-5.35-.87-7.76-.11-.47.15-.84.52-.99,1-.17.54-.31,1.15-.37,1.58-.32,2.37.04,5.68.81,8.33,2.41-1.29,5.38-1.57,8.04-.86.86-1.43,1.72-2.86,2.57-4.29v-.09c-.05.08-.11.16-.16.26Z"/>
            <path class="cls-26" d="M91.11,143.82v.09c.04-.08.08-.15.13-.23-.04.04-.09.09-.13.14Z"/>
            <path class="cls-1" d="M84.55,141.01c.73-.93,2.75-.29,3.49.31.14.11.3.25.28.44,0,.1-.06.19-.16.22-.23.07-.44-.12-.63-.22-.25-.13-.52-.23-.79-.29-.34-.08-.69-.1-1.04-.06-.34.04-.66.19-1,.14-.26-.04-.27-.37-.14-.53Z"/>
            <path class="cls-5" d="M85.62,142.64c.02-.06.05-.1.09-.14.04-.04.09-.07.14-.09.05-.03.11-.04.17-.04.04,0,.08.01.12.02.08.02.14.06.2.12.02.03.05.06.07.09.04.07.06.14.06.23v.05c0,.06-.01.12-.04.17-.02.06-.05.1-.09.14-.04.04-.09.07-.14.09-.05.03-.11.04-.17.04l-.12-.02c-.08-.02-.14-.06-.2-.12l-.07-.09c-.04-.07-.06-.14-.06-.23v-.05c0-.06.01-.12.04-.17Z"/>
            <path class="cls-5" d="M80.73,142.92c.02-.06.05-.1.09-.14.04-.04.09-.07.14-.09.05-.03.11-.04.17-.04.04,0,.08.01.12.02.08.02.14.06.2.12.02.03.05.06.07.09.04.07.06.14.06.23v.05c0,.06-.01.12-.04.17-.02.06-.05.1-.09.14-.04.04-.09.07-.14.09-.05.03-.11.04-.17.04l-.12-.02c-.08-.02-.14-.06-.2-.12-.02-.03-.05-.06-.07-.09-.04-.07-.06-.14-.06-.23v-.05c0-.06.01-.12.04-.17Z"/>
            <path class="cls-1" d="M79.84,141.65c.17-.34.55-.51.9-.6.35-.09.71-.11,1.06-.02.16.04.26.21.24.37-.04.27-.27.28-.48.28-.29,0-.57.04-.84.16-.18.08-1.13.55-.94-.05.01-.05.03-.09.06-.13Z"/>
            <path class="cls-35" d="M91.31,145.79c.14.05.34-.02.37-.19.02-.08-.03-.15-.08-.22-.05-.06-.12-.1-.2-.1-.12,0-.2-.11-.17-.23.13-.48.52-.97,1.07-.91.24.02.47.16.57.39.05.11.06.22.03.34-.02.06-.1.23-.19.15-.05-.05-.04-.12-.06-.19-.02-.07-.05-.13-.09-.19-.08-.12-.22-.17-.36-.15-.28.03-.46.25-.57.49.25.11.41.39.34.68-.08.31-.44.52-.75.42-.19-.06-.11-.36.08-.3Z"/>
          </g>
        </g>
        <path class="cls-6" d="M77.92,208.28c3.46.33,7-.28,10.16-1.71,2.93-1.33,5.49-3.39,7.46-5.92,1.09-1.4,1.99-2.95,2.67-4.58.1-.24.46-.05.36.19-1.24,2.98-3.21,5.65-5.67,7.73-2.62,2.22-5.79,3.73-9.15,4.39-1.95.38-3.94.48-5.92.3-.26-.02-.17-.42.09-.39Z"/>
        <path class="cls-6" d="M84.34,159.51c2.75.79,5.86.05,7.95-1.92.19-.18.49.09.3.27-2.19,2.06-5.44,2.86-8.33,2.04-.25-.07-.16-.46.09-.39Z"/>
        <path class="cls-35" d="M81.82,144.87c.31-.38.67-.74.75-1.24.04-.26.44-.17.39.09-.15.87-.99,1.32-1.28,2.11-.16.43-.06.95.26,1.28.33.35.85.46,1.31.31.25-.08.37.3.12.38-1.08.35-2.23-.48-2.17-1.63.03-.51.3-.93.61-1.31Z"/>
        <path class="cls-5" d="M86.28,149c-.75.99-2.08,1.51-3.3,1.26-.27-.05-.4.35-.13.41,1.42.29,2.92-.27,3.79-1.43.17-.22-.19-.45-.36-.23Z"/>
        <g>
          <polygon class="cls-32" points="80.4 69.68 90.01 89.13 111.48 92.25 95.94 107.4 99.61 128.78 80.4 118.69 61.2 128.78 64.87 107.4 49.33 92.25 70.8 89.13 80.4 69.68"/>
          <path class="cls-7" d="M57.91,91.01l-8.58,1.25,15.54,15.14-3.67,21.38,19.2-10.1,19.2,10.1-3.11-18.15c-14.94-.64-29.78-7.62-38.58-19.63Z"/>
        </g>
        <g>
          <g>
            <path class="cls-26" d="M66.95,120.32c.26-.03.52-.05.76.02.25.07.47.26.52.52.05.3-.17.6-.45.74-.28.14-.59.17-.9.21-1.05.15-2.05.58-2.89,1.23-.43.33-.82.73-1.3.99-1.65.92-2.93-.85-1.22-1.9,1.63-1,3.58-1.6,5.47-1.82Z"/>
            <path class="cls-26" d="M67.93,121.91c.26-.03.52-.05.76.02.25.07.47.26.52.52.05.3-.17.6-.45.74-.28.14-.59.17-.9.21-1.05.15-2.05.58-2.89,1.23-.43.33-.82.73-1.3.99-1.65.92-2.93-.85-1.22-1.9,1.63-1,3.58-1.6,5.47-1.82Z"/>
            <path class="cls-26" d="M67.64,123.7c.26-.03.52-.05.76.02s.47.26.52.52c.05.3-.17.6-.45.74-.28.14-.59.17-.9.21-1.05.15-2.05.58-2.89,1.23-.43.33-.82.73-1.3.99-1.65.92-2.93-.85-1.22-1.9,1.63-1,3.58-1.6,5.47-1.82Z"/>
            <path class="cls-26" d="M66.78,125.53c.21-.02.42-.04.62.02.2.06.39.22.42.42.04.25-.14.49-.37.61-.23.11-.48.13-.73.17-.86.13-1.68.48-2.36,1-.35.27-.67.59-1.06.81-1.34.75-2.39-.69-.99-1.55,1.33-.82,2.92-1.31,4.47-1.48Z"/>
            <path class="cls-26" d="M61.27,122.27c-.9.77-1.37,1.28-2.02,2.27-.65.99-1.04,2.21-.79,3.36.25,1.16,1.24,2.19,2.42,2.24.7.03,1.39-.27,1.95-.69,1.17-.87,1.89-2.31,1.91-3.77s-.68-2.91-1.82-3.81l-1.65.4Z"/>
          </g>
          <path class="cls-26" d="M59.63,125.51c-2.66,3.21-13.02,19.42-13.08,23.53-.03,2.16.7,4.45,2.35,5.91,1.84,1.62,4.01,1.21,5.22-.9,2.19-3.82,6.54-20.72,7.57-25.91l-2.07-2.63Z"/>
        </g>
        <g>
          <g>
            <path class="cls-26" d="M94.11,118.73c-.26-.03-.52-.05-.76.02-.25.07-.47.26-.52.52-.05.3.17.6.45.74.28.14.59.17.9.21,1.05.15,2.05.58,2.89,1.23.43.33.82.73,1.3.99,1.65.92,2.93-.85,1.22-1.9-1.63-1-3.58-1.6-5.47-1.82Z"/>
            <path class="cls-26" d="M93.13,120.32c-.26-.03-.52-.05-.76.02-.25.07-.47.26-.52.52-.05.3.17.6.45.74s.59.17.9.21c1.05.15,2.05.58,2.89,1.23.43.33.82.73,1.3.99,1.65.92,2.93-.85,1.22-1.9-1.63-1-3.58-1.6-5.47-1.82Z"/>
            <path class="cls-26" d="M93.42,122.12c-.26-.03-.52-.05-.76.02-.25.07-.47.26-.52.52-.05.3.17.6.45.74.28.14.59.17.9.21,1.05.15,2.05.58,2.89,1.23.43.33.82.73,1.3.99,1.65.92,2.93-.85,1.22-1.9-1.63-1-3.58-1.6-5.47-1.82Z"/>
            <path class="cls-26" d="M94.28,123.95c-.21-.02-.42-.04-.62.02-.2.06-.39.22-.42.42-.04.25.14.49.37.61s.48.13.73.17c.86.13,1.68.48,2.36,1,.35.27.67.59,1.06.81,1.34.75,2.39-.69.99-1.55-1.33-.82-2.92-1.31-4.47-1.48Z"/>
            <path class="cls-26" d="M99.78,120.69c.9.77,1.37,1.28,2.02,2.27.65.99,1.04,2.21.79,3.36-.25,1.16-1.24,2.19-2.42,2.24-.7.03-1.39-.27-1.95-.69-1.17-.87-1.89-2.31-1.91-3.77-.02-1.46.68-2.91,1.82-3.81l1.65.4Z"/>
          </g>
          <path class="cls-26" d="M101.43,123.93c2.66,3.21,13.02,19.42,13.08,23.53.03,2.16-.7,4.45-2.35,5.91-1.84,1.62-4.01,1.21-5.22-.9-2.19-3.82-6.54-20.72-7.57-25.91l2.07-2.63Z"/>
        </g>
        <path class="cls-6" d="M110.35,159.68c-2.61,3.08-5.22,6.17-7.83,9.25-.75.88-1.49,1.77-2.24,2.65-.18.21.11.52.29.32,2.61-3.08,5.22-6.17,7.83-9.25l2.24-2.65c.18-.21-.11-.52-.29-.32Z"/>
        <path class="cls-6" d="M72.3,161.35c-.23,3.61-.42,7.22-.57,10.83-.15,3.63-.25,7.26-.32,10.9-.03,2.04-.06,4.08-.06,6.12,0,.27.43.29.43.02.01-3.62.07-7.23.17-10.85.1-3.63.24-7.26.43-10.89.1-2.04.22-4.07.35-6.11.02-.27-.41-.29-.43-.02Z"/>
        <g>
          <path class="cls-1" d="M80.36,145.62c-1.16,0-2.1-.94-2.1-2.1s.94-2.1,2.1-2.1,2.1.94,2.1,2.1-.94,2.1-2.1,2.1ZM80.36,141.64c-1.04,0-1.88.85-1.88,1.88s.85,1.88,1.88,1.88,1.88-.85,1.88-1.88-.85-1.88-1.88-1.88Z"/>
          <path class="cls-1" d="M85.49,145.62c-1.16,0-2.1-.94-2.1-2.1s.94-2.1,2.1-2.1,2.1.94,2.1,2.1-.94,2.1-2.1,2.1ZM85.49,141.64c-1.04,0-1.88.85-1.88,1.88s.85,1.88,1.88,1.88,1.88-.85,1.88-1.88-.84-1.88-1.88-1.88Z"/>
          <path class="cls-1" d="M82.38,142.87l-.15-.15c.37-.36,1-.38,1.4-.06l-.13.17c-.31-.25-.82-.23-1.12.05Z"/>
          <path class="cls-1" d="M91.56,143.52c-1.31-.5-2.73-.65-4.12-.44l-.03-.21c1.42-.21,2.88-.05,4.22.46l-.08.2Z"/>
        </g>
      </g>
      <rect class="cls-27" x="42.07" y="301.19" width="248.66" height="1.6"/>
    </g>
  </g>
</svg>