<?xml version="1.0" encoding="UTF-8"?>
<svg id="Illustration" xmlns="http://www.w3.org/2000/svg" viewBox="0 0 399.9 399.9">
  <defs>
    <style>
      .cls-1 {
        fill: #efbc73;
      }

      .cls-2 {
        fill: #363e44;
      }

      .cls-3 {
        fill: #d87355;
      }

      .cls-4 {
        fill: #d3bba3;
      }

      .cls-5 {
        fill: #84524d;
      }

      .cls-6 {
        fill: #fff;
      }

      .cls-7 {
        fill: #e5e5e5;
      }

      .cls-8 {
        fill: #363e44;
      }

      .cls-9 {
        fill: #e0aa63;
      }

      .cls-10 {
        fill: #f2e6dc;
      }

      .cls-11 {
        fill: #fca311;
      }

      .cls-12 {
        fill: #b3b3b3;
      }

      .cls-13 {
        fill: #8b865c;
      }

      .cls-14 {
        fill: #f7f1eb;
      }

      .cls-15 {
        fill: #ffd092;
      }

      .cls-16 {
        fill: #fbb03b;
      }
    </style>
  </defs>
  <g id="Business_trend">
    <path class="cls-7" d="M399.9,199.95c0,110.43-89.52,199.95-199.95,199.95-14.11,0-27.88-1.46-41.17-4.24-26.29-5.5-50.68-16.16-72.06-30.89-3.88-2.66-7.67-5.47-11.35-8.42-22.05-17.58-40.3-39.74-53.31-65.03C7.95,263.93,0,232.87,0,199.95,0,89.52,89.52,0,199.95,0s199.95,89.52,199.95,199.95Z"/>
    <g>
      <path class="cls-4" d="M389.17,298.48v-12.3l-2.4-2.4v-9.71l-5.61-5.62v10.24l-3.38,3.39-5.4-5.41,4.89-4.9-8.64-8.65-18.71,18.74h-5.76l-8.28,8.29c-.13,9.82-.26,24.87.12,24.87h14.4v-5h10.75v7.3h5.18v7.88l6.81,6.82,19.39-19.42v-14.13h-3.36Z"/>
      <path class="cls-4" d="M61.91,222.36c0-1.73-1.15-25.37,0-25.37s-14.4,0-14.4,0v-13.26h19.58l7.2,7.21v-14.13l14.83-14.85h14.83v-10.52h19.58v-31.14l-7.49-7.5-15.55,15.57-6.91-6.92,15.55-15.57,3.74,3.75,8.64-8.65,10.94,10.96,6.05-6.06v-13.26h-28.22l6.91-6.92h-40.31l-11.37-11.39h-15.69L15.62,108.53h14.04l9.39-9.41,9.61,9.62-10.08,10.09v17.01l-11.84,11.86v46.39l35.16,28.26Z"/>
      <path class="cls-4" d="M70.62,222.36h19.87l27.72,27.76,7,2.65,4.58,16.03-8.42,8.43v20.34s-6.69,4.97-6.69,6.7v46.27l7.56,7.57v7.57l-33.75-33.8v-26.75l-10.16-10.17v-14.48l-15.08-15.1v-28.92l7.38-14.1Z"/>
      <path class="cls-12" d="M154.83,198.3v35.9s25.91-3.46,25.91,0,15.55,15.57,15.55,15.57v35.03c0,1.73,10.91,10.92,10.91,10.92v16.76h14.57l13.93-13.95v-23.67l9.26-9.27v-21.87l13.88-13.9-6.71-6.72h-10.07l-8.49-8.5v-25.37l12.88,12.9-7.85,7.86,7.13,7.14,13.39-13.41v-5.84h12.31l11.23,11.24v9.08l9.28,9.3,19.65-19.68,5.83,5.84v17.08h10.58l-5.18-5.19v-7.35l5.75,5.76,4.4,4.41,11.23-11.24-9.73-9.75,16.84-16.87-15.53-15.55,25.81-25.85-17.92-17.95,17.32-17.35v10.98l15.25,15.27v-13.97l-8.87-8.88,17.99-18.01h-9.85v-7.7h-76.01l-13.82-13.84-16.84,16.87,4.32,4.32-16.19,16.22-6.48-6.49-9.5,9.51-14.47-14.49-23.97,24,6.48,6.49v5.84l4.43-4.43v-8.97h8.31v3.2l-13.66,13.68-5.46-5.46-15.84,15.86v4.85l-3.29,3.29h-7.7v4.21l-4.13,4.13,6.17,6.18h6.98v-7.14l5.69-5.69,4.89,4.9s2.52-5.41,3.96-3.96c1.44,1.44,6.19,5.48,6.19,6.2s.72,4.47,0,4.47,2.88-2.88,2.88-2.88v-4.76l-4.46-4.47,1.8-1.8,4.89,4.9v5.98l3.85,3.86v-3.42l3.36-3.37,8.06-8.07v-4.85h5.24v5.48s3.24-.36,3.6,0c.36.36,3.67,3.68,3.67,3.68v3.68h-8.13v-2.88h-5.61l-5.25,5.26v3.24l3.56,3.57h8.17v6.52h-15.12l-4.25-4.25-6.12,6.13-5.4-5.41v-4.83h-10.72l-4.97,4.97h-10.72l-13.4,13.42v3.23l-5.68.17Z"/>
    </g>
    <g>
      <path class="cls-8" d="M86.72,364.76l4.76-82.75-16.11,74.34c-22.05-17.58-40.3-39.74-53.31-65.03l11.58-77.22,121.2,20.1,3.95,161.46c-26.29-5.5-50.68-16.16-72.06-30.89Z"/>
      <g>
        <path class="cls-11" d="M1.42,137.81c.77-.29,5.34-71.09,107.38-74.88,102.04-3.79,109.71,41.86,109.71,41.86l-1.33,19.28-56.74,8.96,3.92,117.7L29.64,215.82l16.18-58.35L1.42,137.81Z"/>
        <path class="cls-11" d="M223.34,66.28h0c4.03,10.73-1.2,17.89-11.33,22.15h0c-10.13,4.26-21.34,4.01-25.36-6.71l11,29.31c4.03,10.73,15.51,15.97,25.64,11.71h0c10.13-4.26,15.08-16.42,11.06-27.15l-11-29.31Z"/>
        <path class="cls-11" d="M1.42,137.81s-12.33,47.3,51.07,47.3l32.69-32.46-48.93-22.83-34.84,7.99Z"/>
        <path class="cls-2" d="M60.97,142.04s-.07,0-.1-.02l-18.59-9.14c-.11-.05-.15-.18-.1-.29.05-.11.18-.15.29-.1l18.59,9.14c.11.05.15.18.1.29-.04.08-.12.12-.2.12Z"/>
        <path class="cls-2" d="M160.86,130.04s-.04,0-.06,0c-.12-.03-.19-.15-.15-.27l3.51-12.97c.03-.12.15-.19.27-.15.12.03.19.15.15.27l-3.51,12.97c-.03.1-.11.16-.21.16Z"/>
        <path class="cls-2" d="M200.6,116.02c-.09,0-.18-.06-.21-.16l-6.9-23.15c-.03-.12.03-.24.15-.27.12-.03.24.03.27.15l6.9,23.15c.03.12-.03.24-.15.27-.02,0-.04,0-.06,0Z"/>
        <path class="cls-1" d="M125.01,51.64c-12.45-1.03-31.58-.86-54.16,5.25-8.12,2.2-14.49,8.86-16.72,17.41,0,0,30.49-2.7,42.73,7.15,5.72,4.61,12.96,6.58,20.01,5.11l.53-.11c7.97-1.65,14.76-7.06,18.1-14.76,2.03-4.67,6.05-8.01,13.97-7.35-3.72-8.08-15.25-11.94-24.47-12.7Z"/>
        <path class="cls-10" d="M103.24,112.26s-.07,0-.1-.02c-.11-.06-.15-.19-.09-.29,4.38-8.46,6.16-18.01,5.16-27.6l-.56-5.34c-.01-.12.07-.23.19-.24.12-.01.23.07.24.19l.56,5.34c1.01,9.68-.79,19.31-5.2,27.85-.04.08-.12.12-.19.12Z"/>
        <path class="cls-10" d="M122.89,111.03s-.02,0-.04,0c-.12-.02-.2-.13-.18-.25,1.58-9.5.38-19.15-3.47-27.9l-2.15-4.87c-.05-.11,0-.24.11-.29.11-.05.24,0,.29.11l2.15,4.87c3.89,8.82,5.1,18.56,3.5,28.15-.02.11-.11.18-.22.18Z"/>
      </g>
      <g>
        <polygon class="cls-5" points="98.91 65.47 107.73 44.1 125.12 50.7 118.05 68.42 98.91 65.47"/>
        <g>
          <path class="cls-2" d="M131.29,18.74c-1.29-4.47-5.93-6.8-10.02-5.02l-16.73,7.31c-4.19,1.34-6.06,6.52-3.77,10.47l5.96,10.32,27.84-11.71-3.28-11.38Z"/>
          <path class="cls-5" d="M133.04,24.17c3.61,8.46,5.18,23.83-5.13,28.77-10.31,4.94-20.18-6.45-23.79-14.91-3.61-8.46,4.57-17.61,12.56-21.44,7.99-3.83,12.75-.88,16.36,7.58Z"/>
          <path class="cls-5" d="M106.19,36.38c2.77,2.62,3.68,6.33,2.03,8.28-1.65,1.96-5.23,1.42-8-1.2-2.77-2.62-3.68-6.33-2.04-8.28,1.65-1.96,5.23-1.42,8,1.2Z"/>
          <path class="cls-2" d="M104.11,43.23s-.02,0-.03,0c-.86-.13-1.74-.59-2.5-1.3-1.57-1.48-2.07-3.62-1.11-4.76.1-.12.21-.22.33-.31.1-.07.23-.05.31.05.07.1.05.23-.05.31-.1.07-.18.15-.26.24-.81.96-.33,2.83,1.08,4.16.69.65,1.49,1.07,2.26,1.19.12.02.2.13.18.25-.02.11-.11.19-.22.19Z"/>
          <path class="cls-2" d="M109.73,47.11c-.06,0-.12-.03-.16-.07-2.04-2.33-3.88-5.14-5.19-7.91-.05-.11,0-.24.1-.29.11-.05.24,0,.29.1,1.29,2.73,3.11,5.51,5.12,7.81.08.09.07.23-.02.31-.04.04-.09.05-.14.05Z"/>
          <g>
            <path class="cls-6" d="M137.29,20.77s-.16,1.48-.86,3.24c-.47,1.16-2.51,1.08-3.58,2.13-1.33,1.31-1.65,3.37-2.95,3.74-1.31.37-2.29.41-2.29.41,0,0,.09-.82.43-1.97.42-1.41,2.1-1.69,3.57-3.14,1.25-1.22,1.87-3.53,3.13-3.92,1.45-.44,2.56-.48,2.56-.48Z"/>
            <path class="cls-2" d="M130.71,23.55c-1.48,1.45-2.27,3.35-2.69,4.77.49.68,1.13,1.22,1.86,1.56,1.31-.37,2.95-1.06,4.29-2.37,1.08-1.06,1.79-2.35,2.26-3.52-.28-1.12-.89-2.06-1.71-2.72-1.26.38-2.77,1.07-4.01,2.29Z"/>
          </g>
          <g>
            <path class="cls-6" d="M110.82,33.45s1.36,1,3.32,1.59c1.04.31,2.2-1.29,3.46-1.43,1.68-.18,3.21.88,4.31.13,1.28-.86,2.05-1.73,2.05-1.73,0,0-.6-.45-1.58-.92-1.28-.61-2.94,1.26-4.99,1.48-1.69.18-3.44-1.59-4.54-.84-1.26.86-2.02,1.71-2.02,1.71Z"/>
            <path class="cls-2" d="M122.35,31.09c-1.28-.61-3.18-1.26-5.21-1.03-1.7.19-3.19.94-4.29,1.69.02,1.06.36,2.13,1.03,3.02.07.09.14.17.21.26,1.06.33,2.29.53,3.57.39,1.7-.19,3.19-.94,4.29-1.69.36-.83.49-1.74.4-2.64Z"/>
          </g>
          <path class="cls-2" d="M123.69,54.34c-2.62,0-5.19-.83-7.35-1.68-.11-.04-.17-.17-.12-.28.04-.11.17-.17.28-.12,3.48,1.37,7.56,2.54,11.4.76,3.85-1.78,5.8-5.93,7.06-9.34.04-.11.17-.17.28-.13.11.04.17.17.13.28-1.29,3.49-3.28,7.74-7.28,9.59-1.44.67-2.93.93-4.4.93Z"/>
          <path class="cls-2" d="M129.03,38.11s-.09-.01-.13-.04c-.1-.07-.12-.21-.05-.31.47-.65.65-1.2.53-1.64-.09-.35-.35-.54-.71-.81-.29-.22-.62-.46-.96-.86-.49-.57-.84-1.29-1.04-2.12-.03-.12.05-.24.16-.26.12-.03.24.05.26.16.18.76.49,1.41.94,1.93.31.36.62.59.89.79.4.29.74.55.87,1.05.15.57-.05,1.24-.6,2-.04.06-.11.09-.18.09Z"/>
          <path class="cls-2" d="M122.76,45.63c-.45,0-.91-.1-1.32-.31-.53-.27-.96-.7-1.22-1.21-.05-.11-.01-.24.1-.29.11-.05.24-.01.29.1.21.43.58.79,1.03,1.01.74.38,1.65.36,2.31-.05.1-.06.24-.03.3.07.06.1.03.24-.07.3-.41.26-.91.39-1.41.39Z"/>
          <path class="cls-3" d="M98.68,25.27l30.04-12.64h0c-3.3-8.78-12.69-13.07-20.99-9.59h0c-8.3,3.49-12.35,13.44-9.05,22.22h0Z"/>
          <path class="cls-3" d="M100.2,27.93c8.87-6.91,18.46-11.21,28.97-12.19,1.51-.63,2.25-2.45,1.65-4.04h0c-.6-1.6-2.31-2.38-3.82-1.74l-28.97,12.19c-1.51.63-2.25,2.45-1.65,4.04h0c.6,1.6,2.31,2.38,3.82,1.74Z"/>
          <path class="cls-15" d="M99.33,21.69c-.07,0-.14-.03-.18-.1-.07-.1-.04-.24.06-.3.08-.05,8.18-5.45,12.1-6.94.11-.04.24.01.28.13.04.11-.01.24-.13.28-3.87,1.47-11.93,6.84-12.01,6.89-.04.02-.08.04-.12.04Z"/>
        </g>
        <ellipse class="cls-5" cx="108.8" cy="66.96" rx="13.75" ry="4.03"/>
      </g>
      <g>
        <path class="cls-5" d="M219.39,34.54c1.03,10.31-6.54,22.56-14.88,22.56s-16.39-13.18-16.39-22.01,6.89-14.46,15.1-15.99c11.59-2.17,15.3,6.68,16.17,15.44Z"/>
        <path class="cls-5" d="M214.15,93.02h0c9.21-3.87,13.71-14.92,10.05-24.67h0l-18.24-38.99-27.83,11.71,12.73,41.31c3.66,9.75,14.09,14.51,23.3,10.64Z"/>
        <g>
          <g>
            <path class="cls-9" d="M181.66,16.93c-1.16,0-3.32.51-3.32.51,0,0-13,4.1-13.27,4.18h0c-3.31.97-5.78,4.75-5.78,9.27s2.48,8.31,5.8,9.27h0s13.25,4.03,13.25,4.03c1.05.43,2.17.66,3.33.66,6.05,0,10.95-6.25,10.95-13.97s-4.9-13.97-10.95-13.97Z"/>
            <path class="cls-1" d="M197.86,10.23c-1.72,0-4.92.76-4.92.76,0,0-19.24,6.06-19.64,6.19h0c-4.9,1.44-8.55,7.03-8.55,13.72s3.67,12.3,8.58,13.73h0s19.62,5.97,19.62,5.97c1.55.63,3.21.97,4.92.97,8.95,0,16.2-9.25,16.2-20.67s-7.25-20.67-16.2-20.67Z"/>
            <path class="cls-14" d="M197.86,51.78c-9.05,0-16.42-9.37-16.42-20.89s7.37-20.89,16.42-20.89,16.42,9.37,16.42,20.89-7.37,20.89-16.42,20.89ZM197.86,10.44c-8.81,0-15.98,9.17-15.98,20.45s7.17,20.45,15.98,20.45,15.98-9.17,15.98-20.45-7.17-20.45-15.98-20.45Z"/>
            <ellipse class="cls-2" cx="197.86" cy="30.89" rx="13.24" ry="16.89"/>
          </g>
          <g>
            <path class="cls-9" d="M141.89,16.93c-1.16,0-3.32.51-3.32.51,0,0-13,4.1-13.27,4.18h0c-3.31.97-5.78,4.75-5.78,9.27s2.48,8.31,5.8,9.27h0s13.25,4.03,13.25,4.03c1.05.43,2.17.66,3.33.66,6.05,0,10.95-6.25,10.95-13.97s-4.9-13.97-10.95-13.97Z"/>
            <path class="cls-1" d="M158.1,10.23c-1.72,0-4.92.76-4.92.76,0,0-19.24,6.06-19.64,6.19h0c-4.9,1.44-8.55,7.03-8.55,13.72s3.67,12.3,8.58,13.73h0s19.62,5.97,19.62,5.97c1.55.63,3.21.97,4.92.97,8.95,0,16.2-9.25,16.2-20.67s-7.25-20.67-16.2-20.67Z"/>
            <path class="cls-14" d="M158.1,51.78c-9.05,0-16.42-9.37-16.42-20.89s7.37-20.89,16.42-20.89,16.42,9.37,16.42,20.89-7.37,20.89-16.42,20.89ZM158.1,10.44c-8.81,0-15.98,9.17-15.98,20.45s7.17,20.45,15.98,20.45,15.98-9.17,15.98-20.45-7.17-20.45-15.98-20.45Z"/>
            <ellipse class="cls-2" cx="158.1" cy="30.89" rx="13.24" ry="16.89"/>
          </g>
          <path class="cls-14" d="M181.84,33.82c-2.65-2.08-5.1-1.93-7.39,0v-3.01s7.39,0,7.39,0v3.01Z"/>
        </g>
        <path class="cls-5" d="M187.52,48.94s-5.68-1.73-9.39-7.87c-3.22-5.33-8.16,4.2.02,10.49,8.18,6.29,9.37-2.62,9.37-2.62Z"/>
        <path class="cls-2" d="M198.61,53.66c-.1,0-.15,0-.16,0-.12,0-.21-.11-.21-.23,0-.12.09-.21.23-.21.08,0,8.38.25,12.06-6.49.06-.11.19-.15.3-.09.11.06.14.19.09.3-3.53,6.46-11.11,6.72-12.31,6.72Z"/>
      </g>
      <g>
        <g>
          <g>
            <path class="cls-14" d="M131.96,257.34l.04,32.27c.02,17.82,13.68,32.25,30.52,32.23h0c16.83-.02,30.46-14.49,30.44-32.31l-.04-32.27-60.96.08Z"/>
            <path class="cls-2" d="M162.48,322.06c-8.19,0-15.88-3.37-21.68-9.49-5.8-6.13-9-14.28-9.01-22.96l-.04-32.27c0-.12.1-.22.22-.22l60.96-.08h0c.06,0,.11.02.15.06.04.04.06.1.06.15l.04,32.27c.02,17.91-13.73,32.51-30.66,32.53h-.04ZM132.18,257.56l.04,32.05c.01,8.56,3.17,16.61,8.89,22.66,5.71,6.03,13.3,9.35,21.36,9.35h.04c16.69-.02,30.24-14.42,30.22-32.09l-.04-32.05-60.52.08Z"/>
          </g>
          <path class="cls-2" d="M162.22,300.84c-7.71,0-14.96-.45-20.43-1.27-3.99-.6-8.75-1.66-8.75-3.33,0-.12.1-.22.22-.22h0c.12,0,.22.1.22.22,0,.39.61,1.73,8.38,2.9,5.45.82,12.67,1.26,20.36,1.26.09,0,.18,0,.27,0,17.35-.02,29-2.21,29-4.24,0-.12.1-.22.22-.22h0c.12,0,.22.1.22.22,0,2.9-14.97,4.66-29.44,4.68-.09,0-.18,0-.27,0Z"/>
          <path class="cls-2" d="M162.21,286.69c-7.72,0-14.96-.45-20.43-1.27-3.99-.6-8.75-1.66-8.75-3.33,0-.12.1-.22.22-.22h0c.12,0,.22.1.22.22,0,.39.61,1.73,8.38,2.9,5.51.83,12.83,1.27,20.63,1.26,17.35-.02,29-2.21,29-4.24,0-.12.1-.22.22-.22h0c.12,0,.22.1.22.22,0,2.9-14.97,4.66-29.44,4.68-.09,0-.18,0-.27,0Z"/>
        </g>
        <g>
          <ellipse class="cls-6" cx="162.36" cy="188.77" rx="78.91" ry="83.55"/>
          <path class="cls-3" d="M162.35,272.54c-10.65,0-20.98-2.2-30.71-6.54-9.43-4.21-17.9-10.24-25.17-17.92-7.28-7.68-12.99-16.63-16.99-26.6-4.14-10.32-6.24-21.29-6.26-32.59-.01-11.31,2.06-22.28,6.18-32.61,3.97-9.98,9.67-18.95,16.92-26.65,7.26-7.7,15.71-13.76,25.13-17.99,9.75-4.38,20.11-6.61,30.8-6.63.04,0,.07,0,.11,0,10.65,0,20.98,2.2,30.71,6.54,9.43,4.21,17.9,10.24,25.17,17.92,7.28,7.68,12.99,16.63,16.99,26.6,4.14,10.32,6.24,21.29,6.26,32.59s-2.06,22.28-6.18,32.61c-3.97,9.98-9.67,18.95-16.92,26.65-7.26,7.7-15.71,13.76-25.13,17.99-9.75,4.38-20.11,6.61-30.8,6.63-.04,0-.07,0-.11,0ZM162.36,105.44s-.07,0-.1,0c-43.39.06-78.65,37.49-78.59,83.44.03,22.26,8.24,43.18,23.12,58.9,14.86,15.69,34.59,24.33,55.56,24.33.04,0,.07,0,.1,0,43.39-.06,78.65-37.49,78.59-83.44-.03-22.26-8.24-43.18-23.12-58.9-14.86-15.69-34.59-24.33-55.56-24.33Z"/>
        </g>
        <g>
          <g>
            <path class="cls-3" d="M162.09,253.72c-1.62,0-3.23-.07-4.86-.2-16.5-1.36-31.52-9.44-42.28-22.76-10.76-13.32-15.98-30.27-14.7-47.75.67-9.16,3.07-17.88,7.14-25.91,3.93-7.76,9.21-14.51,15.71-20.07,12.36-10.57,27.89-15.68,43.74-14.37,16.5,1.36,31.52,9.44,42.28,22.76,10.76,13.32,15.98,30.27,14.7,47.75l-.22-.02.22.02c-.67,9.16-3.07,17.88-7.14,25.91-3.93,7.76-9.21,14.51-15.71,20.07-11.09,9.49-24.74,14.57-38.88,14.57ZM161.97,122.9c-14.03,0-27.58,5.05-38.59,14.47-13.31,11.39-21.37,27.61-22.69,45.67-2.63,35.84,22.75,67.26,56.58,70.04,1.61.13,3.22.2,4.82.2,14.03,0,27.58-5.05,38.59-14.47,13.31-11.39,21.37-27.61,22.69-45.67,2.63-35.84-22.75-67.26-56.58-70.04-1.61-.13-3.22-.2-4.82-.2Z"/>
            <path class="cls-16" d="M165.59,139.52c-25.33-2.08-47.45,17.97-49.42,44.8-1.97,26.83,16.97,50.26,42.3,52.35,25.33,2.08,47.45-17.97,49.42-44.8,1.97-26.83-16.97-50.26-42.3-52.35ZM159.89,217.24c-15.2-1.25-26.56-15.31-25.38-31.41,1.18-16.1,14.46-28.13,29.65-26.88,15.2,1.25,26.56,15.31,25.38,31.41-1.18,16.1-14.46,28.13-29.65,26.88Z"/>
            <ellipse class="cls-3" cx="162.03" cy="188.09" rx="12.36" ry="13.1"/>
          </g>
          <g>
            <polygon class="cls-13" points="231.21 132.09 191.54 166.74 187.67 161.78 227.34 127.12 231.21 132.09"/>
            <polygon class="cls-2" points="186.75 169.34 161 189.26 184.35 166.27 186.75 169.34"/>
            <g>
              <polygon class="cls-3" points="246.02 115.12 231.08 128.18 229.46 117.1 244.4 104.05 246.02 115.12"/>
              <polygon class="cls-3" points="247.15 116.57 232.21 129.63 242.17 133.42 257.11 120.37 247.15 116.57"/>
            </g>
            <polygon class="cls-3" points="190.33 169.57 188.31 171.34 182.8 164.27 184.82 162.49 190.33 169.57"/>
            <polygon class="cls-6" points="192.36 167.8 190.33 169.57 184.82 162.49 186.85 160.72 192.36 167.8"/>
          </g>
        </g>
        <g>
          <path class="cls-2" d="M151.9,252.22c-.09,0-.17-.05-.2-.14l-24.87-61.67c-.05-.11,0-.24.12-.28.11-.05.24,0,.28.12l24.87,61.67c.05.11,0,.24-.12.28-.03.01-.05.02-.08.02Z"/>
          <path class="cls-2" d="M172.97,252.19s-.05,0-.08-.02c-.11-.04-.17-.17-.12-.28l24.72-61.74c.05-.11.17-.17.28-.12.11.04.17.17.12.28l-24.72,61.74c-.03.09-.12.14-.2.14Z"/>
        </g>
      </g>
      <path class="cls-5" d="M31.12,170.23c4.97,15.34,36.67,19.63,57.14,21.87,2.65,1.26,6.8,2.72,11.56,1.94,5.42-.88,6.44-3.82,12.02-5.69,9.43-3.16,15.91,2.35,17.39-1.01,1.02-2.31-2.63-5.69-6.71-7.87-4.19-2.23-7.79-1.8-7.82-2.62-.03-.89,3.68-.83,8.3-1.19,2.15-.17,8.31,3.21,10.14.27,1.46-2.34-4.12-7.55-10.52-8.7-4.53-.81-8.35,1.61-8.63.77-.21-.63,2.1-2.01,4.43-2.58,3.84-.93,10.18,2.45,11.82-.29,1.6-2.68-3.35-7.14-9.17-8.59-4.91-1.22-9.05,1.7-9.4.66-.25-.73,1.35-2.44,5.55-4.82,3.51-1.99,11.53-3.45,10.12-7.65-1.19-3.53-9.65-2.2-17.24.55-2.62.95-6.23,3.05-9.49,5.03-3.94,2.39-8.65,2.88-12.96,1.37-8.76-3.07-25.01-7.58-32.42-9.72-7.34-1.24-31.82,4.46-24.11,28.25Z"/>
    </g>
    <polygon class="cls-6" points="391.78 206.69 315.44 220.05 333.79 237.49 253.15 316.26 219.68 280.45 121.17 396.75 212.52 323.94 245.83 361.56 364.22 266.4 382.34 283.62 391.78 206.69"/>
    <g>
      <path class="cls-6" d="M315.94,90.6c-11.12,5.72-23.8,6.78-35.7,2.97-11.91-3.81-21.62-12.03-27.34-23.15-5.72-11.12-6.78-23.8-2.97-35.7,3.81-11.91,12.03-21.62,23.15-27.34,11.12-5.72,23.8-6.78,35.7-2.97,11.91,3.81,21.62,12.03,27.34,23.15,5.72,11.12,6.78,23.8,2.97,35.7-3.81,11.91-12.03,21.62-23.15,27.34ZM278.36,17.62c-17.29,8.9-24.11,30.21-15.21,47.5,8.9,17.29,30.21,24.11,47.5,15.21,17.29-8.9,24.11-30.21,15.21-47.5-8.9-17.29-30.21-24.11-47.5-15.21Z"/>
      <g>
        <path class="cls-11" d="M261.97,62.6c-7.04-16.79-.07-36.5,16.39-44.97,4.36-2.25,8.98-3.49,13.58-3.82l.07-11.59c-6.52.34-12.96,2.07-18.94,5.15-11.12,5.72-19.34,15.44-23.15,27.34-3.53,11.02-2.89,22.7,1.76,33.19l10.28-5.3Z"/>
        <path class="cls-7" d="M297.59,2.25l-.07,11.6c11.67,1.02,22.59,7.82,28.34,18.98,3.09,6,4.28,12.47,3.81,18.75l11.46,1.77c.85-8.83-.85-17.73-5-25.8-5.72-11.12-15.44-19.34-27.34-23.15-3.68-1.18-7.43-1.89-11.18-2.14Z"/>
        <path class="cls-8" d="M308.12,81.52c-15.94,6.68-34.51.74-43.6-13.96l-10.28,5.3c5.84,9.88,14.97,17.18,25.99,20.71,11.02,3.53,22.7,2.89,33.19-1.76l-5.3-10.28Z"/>
        <path d="M328.81,57.1c-2.1,8.83-7.56,16.81-15.73,21.86l5.3,10.28c9.88-5.84,17.18-14.97,20.71-25.99.47-1.45.86-2.92,1.18-4.39l-11.45-1.77Z"/>
      </g>
    </g>
    <g>
      <path class="cls-6" d="M341.32,188.65h-86.49c-.12,0-.22-.1-.22-.22v-56.76c0-.12.1-.22.22-.22s.22.1.22.22v56.54h86.28c.12,0,.22.1.22.22s-.1.22-.22.22Z"/>
      <g>
        <path class="cls-6" d="M310.33,150.36c-.07,0-.15-.04-.19-.11-.06-.1-.03-.24.08-.3l10.27-6.14c.1-.06.24-.03.3.08.06.1.03.24-.08.3l-10.27,6.14s-.07.03-.11.03Z"/>
        <path class="cls-6" d="M303.82,148.72c-.07,0-.14-.03-.18-.1l-13.92-21.19c-.07-.1-.04-.24.06-.3.1-.07.24-.04.3.06l13.92,21.19c.07.1.04.24-.06.3-.04.02-.08.04-.12.04Z"/>
        <path class="cls-6" d="M273.02,134.97c-.07,0-.13-.03-.17-.08-.07-.1-.06-.23.04-.31l10.81-8.35c.1-.07.23-.06.31.04.07.1.06.23-.04.31l-10.81,8.35s-.09.05-.13.05Z"/>
        <path class="cls-6" d="M273.98,137.54c0,2.46-2,4.46-4.46,4.46s-4.46-2-4.46-4.46,2-4.46,4.46-4.46,4.46,2,4.46,4.46Z"/>
        <path class="cls-6" d="M291.95,123.67c0,2.46-2,4.46-4.46,4.46s-4.46-2-4.46-4.46,2-4.46,4.46-4.46,4.46,2,4.46,4.46Z"/>
        <path class="cls-6" d="M310.86,152.28c0,2.46-2,4.46-4.46,4.46s-4.46-2-4.46-4.46,2-4.46,4.46-4.46,4.46,2,4.46,4.46Z"/>
        <path class="cls-6" d="M328.98,141.88c0,2.46-2,4.46-4.46,4.46s-4.46-2-4.46-4.46,2-4.46,4.46-4.46,4.46,2,4.46,4.46Z"/>
      </g>
      <g>
        <rect class="cls-10" x="264.25" y="149.08" width="11.09" height="30.41"/>
        <rect class="cls-10" x="282.55" y="143.02" width="11.09" height="36.47"/>
        <rect class="cls-10" x="300.85" y="159.84" width="11.09" height="19.65"/>
        <rect class="cls-10" x="319.15" y="154.2" width="11.09" height="25.29"/>
      </g>
    </g>
    <g>
      <path class="cls-11" d="M393.8,149.64c-.23-14.93-12.4-26.96-27.38-26.96-.44,0-.87.01-1.3.03v26.93h28.69Z"/>
      <path class="cls-6" d="M362.41,152.35v-16.74c-9.03.42-16.22,7.87-16.22,17.01s7.62,17.03,17.03,17.03,17.03-7.62,17.03-17.03c0-.09,0-.18,0-.27h-17.83Z"/>
    </g>
  </g>
</svg>